<svg width="131" height="131" viewBox="0 0 131 131" fill="none" xmlns="http://www.w3.org/2000/svg">
<circle cx="65.377" cy="65.7148" r="64.9629" fill="white"/>
<circle cx="65.377" cy="65.7148" r="64.4629" stroke="#3B61F4" stroke-opacity="0.06"/>
<g clip-path="url(#clip0_1765_32138)">
<path d="M86.1443 61.2886V59.4772C86.1443 56.2189 85.1503 53.0931 83.2726 50.4313L79.5946 45.2401V40.6122C79.5946 38.7456 78.0704 37.2324 76.2148 37.2324H70.2726C68.406 37.2324 66.8928 38.7566 66.8928 40.6122V45.218L63.2148 50.4313C61.3371 53.0931 60.3431 56.2078 60.3431 59.4661V61.2886C60.3431 62.4262 60.8843 63.4313 61.7127 64.083C60.8622 64.9997 60.332 66.2147 60.332 67.5622C60.332 69.1306 61.05 70.5333 62.1655 71.4721C61.0389 72.4109 60.332 73.8137 60.332 75.3821C60.332 76.7296 60.8511 77.9556 61.7127 78.8613C60.8843 79.5129 60.3431 80.518 60.3431 81.6557V87.8961C60.3431 91.1434 62.9828 93.7831 66.2301 93.7831H80.2573C83.5046 93.7831 86.1443 91.1434 86.1443 87.8961V81.6557C86.1443 80.518 85.6031 79.5019 84.7637 78.8613C85.6142 77.9556 86.1443 76.7296 86.1443 75.3931C86.1443 73.8247 85.4264 72.422 84.3109 71.4832C85.4264 70.5443 86.1443 69.1416 86.1443 67.5732C86.1443 66.2257 85.6252 65.0218 84.7637 64.1051C85.6031 63.4424 86.1443 62.4373 86.1443 61.2886ZM69.2344 40.6122C69.2344 40.0489 69.6982 39.585 70.2615 39.585H76.2038C76.7671 39.585 77.231 40.0489 77.231 40.6122V44.4117H69.2344V40.6122ZM65.4128 72.6429H81.0415C82.5547 72.6429 83.7697 73.8689 83.7697 75.371C83.7697 76.8842 82.5437 78.0992 81.0415 78.0992H65.4017C63.8885 78.0992 62.6736 76.8731 62.6736 75.371C62.6846 73.8689 63.8996 72.6429 65.4128 72.6429ZM62.6846 67.5622C62.6846 66.049 63.9106 64.834 65.4128 64.834H81.0415C82.5547 64.834 83.7697 66.06 83.7697 67.5622C83.7697 69.0643 82.5437 70.2903 81.0415 70.2903H65.4128C63.8996 70.2903 62.6846 69.0643 62.6846 67.5622ZM83.7807 87.8961C83.7807 89.8511 82.2013 91.4305 80.2463 91.4305H66.219C64.2641 91.4305 62.6846 89.8511 62.6846 87.8961V81.6557C62.6846 81.004 63.2148 80.4738 63.8665 80.4738H82.6099C83.2616 80.4738 83.7917 81.004 83.7917 81.6557V87.8961H83.7807ZM83.7807 61.2886C83.7807 61.9402 83.2505 62.4704 82.5989 62.4704H63.8665C63.2148 62.4704 62.6846 61.9402 62.6846 61.2886V59.4661C62.6846 56.6938 63.5241 54.043 65.1256 51.7898L68.6711 46.7754H77.7943L81.3508 51.7898C82.9523 54.0541 83.7917 56.7049 83.7917 59.4772L83.7807 61.2886Z" fill="#3B61F4" stroke="white" stroke-width="0.2"/>
<path d="M80.493 76.7739L92.6081 69.3887L100.572 98.6457C95.236 95.8561 83.4251 89.5755 78.8661 86.7699C74.307 83.9644 78.0511 78.9369 80.493 76.7739Z" fill="white"/>
<path d="M116.547 87.8139C116.043 87.5357 115.404 87.5969 114.792 87.9817L103.501 95.0919C103.35 95.187 103.243 95.338 103.203 95.5119C103.164 95.6858 103.195 95.8683 103.29 96.0192C103.385 96.1701 103.536 96.2771 103.71 96.3166C103.884 96.3561 104.066 96.3249 104.217 96.2299L115.509 89.1196C115.747 88.9694 115.878 88.9805 115.897 88.9912C115.917 89.002 115.995 89.1064 115.995 89.3882C115.995 90.1457 115.433 91.1641 114.792 91.5678L103.846 98.4607C103.264 98.8272 102.732 98.928 102.386 98.7372C102.04 98.5463 101.842 98.0424 101.842 97.3545C101.842 95.6118 103.088 93.3551 104.562 92.4265L117.026 84.5782C117.122 84.5176 117.202 84.4336 117.257 84.3341C117.312 84.2346 117.34 84.1228 117.34 84.0091C117.34 83.8955 117.312 83.7837 117.257 83.6841C117.202 83.5846 117.122 83.5007 117.026 83.4401L93.0769 68.3593C92.9697 68.2917 92.8454 68.2559 92.7186 68.2559C92.5919 68.2559 92.4676 68.2917 92.3603 68.3593L79.7449 76.3032C77.9522 77.4321 76.5479 79.9758 76.5479 82.0943V82.453C76.5479 84.5714 77.9522 87.1152 79.7449 88.2441L101.994 100.035C102.145 100.127 102.326 100.155 102.497 100.115C102.669 100.074 102.818 99.9679 102.912 99.8186C103.006 99.6693 103.038 99.489 103 99.3166C102.962 99.1442 102.858 98.9936 102.711 98.8971L80.4615 87.1061C79.069 86.2294 77.8926 84.0984 77.8926 82.453V82.0943C77.8926 80.4489 79.069 78.318 80.4615 77.4412L92.7186 69.7229L115.406 84.0091L103.846 91.2885C101.968 92.4709 100.497 95.1354 100.497 97.3545C100.497 98.5644 100.937 99.4735 101.736 99.9145C102.057 100.092 102.411 100.18 102.786 100.18C103.344 100.18 103.95 99.9845 104.562 99.5987L115.509 92.7057C116.536 92.0591 117.34 90.6018 117.34 89.3882C117.34 88.666 117.051 88.0922 116.547 87.8139Z" fill="#3B61F4"/>
<path d="M108.259 84.6849C108.405 84.6851 108.547 84.6378 108.664 84.5502C108.781 84.4626 108.866 84.3394 108.906 84.1993C108.947 84.0592 108.941 83.9097 108.889 83.7733C108.837 83.637 108.742 83.5212 108.618 83.4435L93.0816 73.6601C92.9307 73.565 92.7482 73.5338 92.5743 73.5734C92.4004 73.6129 92.2494 73.7198 92.1543 73.8707C92.0593 74.0216 92.0281 74.2041 92.0676 74.378C92.1071 74.5519 92.2141 74.703 92.365 74.798L107.902 84.5815C108.009 84.6491 108.133 84.6849 108.259 84.6849ZM105.571 86.4694C105.685 86.4695 105.797 86.4407 105.897 86.3855C105.997 86.3303 106.081 86.2507 106.142 86.1541C106.189 86.0793 106.22 85.9959 106.235 85.9089C106.25 85.8218 106.247 85.7327 106.227 85.6466C106.208 85.5606 106.171 85.4792 106.12 85.4073C106.069 85.3353 106.004 85.2741 105.929 85.2272L99.3656 81.1117C99.2907 81.0648 99.2074 81.0331 99.1204 81.0184C99.0333 81.0036 98.9442 81.0062 98.8581 81.0259C98.772 81.0457 98.6907 81.0822 98.6187 81.1334C98.5468 81.1845 98.4856 81.2494 98.4387 81.3242C98.3918 81.399 98.3601 81.4823 98.3454 81.5694C98.3306 81.6565 98.3332 81.7456 98.3529 81.8316C98.3727 81.9177 98.4092 81.999 98.4603 82.071C98.5115 82.143 98.5764 82.2041 98.6512 82.251L105.215 86.3665C105.322 86.4338 105.445 86.4694 105.571 86.4694ZM96.626 82.8814C96.5511 82.8346 96.4678 82.8031 96.3807 82.7885C96.2936 82.774 96.2044 82.7767 96.1184 82.7966C96.0324 82.8165 95.9511 82.8532 95.8792 82.9045C95.8074 82.9558 95.7463 83.0207 95.6996 83.0956C95.6528 83.1706 95.6212 83.2539 95.6067 83.341C95.5922 83.4281 95.5949 83.5172 95.6148 83.6033C95.6347 83.6893 95.6714 83.7706 95.7227 83.8424C95.774 83.9143 95.8389 83.9754 95.9138 84.0221L102.528 88.1517C102.603 88.1985 102.686 88.2301 102.773 88.2447C102.86 88.2593 102.949 88.2565 103.035 88.2366C103.121 88.2167 103.203 88.1801 103.275 88.1287C103.346 88.0774 103.408 88.0124 103.454 87.9374C103.501 87.8625 103.533 87.7792 103.547 87.6921C103.562 87.605 103.559 87.5159 103.539 87.4298C103.519 87.3438 103.482 87.2625 103.431 87.1907C103.38 87.1188 103.315 87.0577 103.24 87.011L96.626 82.8814ZM89.5709 75.4197L83.9829 78.9389C83.8864 78.9997 83.807 79.0839 83.7521 79.1838C83.6972 79.2837 83.6685 79.3959 83.6688 79.5098C83.6692 79.6238 83.6985 79.7358 83.754 79.8354C83.8095 79.9349 83.8894 80.0187 83.9862 80.0789L90.6505 84.2226C90.7587 84.29 90.8839 84.3252 91.0114 84.3241C91.1389 84.3229 91.2635 84.2856 91.3705 84.2163L95.4904 81.5535C95.6402 81.4567 95.7454 81.3043 95.7829 81.13C95.8203 80.9556 95.787 80.7735 95.6902 80.6238C95.5934 80.474 95.4411 80.3688 95.2667 80.3313C95.0924 80.2939 94.9103 80.3272 94.7605 80.424L90.9986 82.8555L85.6088 79.5043L89.9301 76.7828L95.2414 80.1132L94.6222 80.5134C94.4724 80.6102 94.3672 80.7625 94.3298 80.9369C94.2923 81.1112 94.3257 81.2933 94.4225 81.4431C94.5193 81.5929 94.6716 81.698 94.8459 81.7355C95.0203 81.773 95.2024 81.7396 95.3522 81.6428L96.8583 80.6693C96.9533 80.6079 97.0312 80.5235 97.0849 80.424C97.1387 80.3245 97.1664 80.213 97.1656 80.1C97.1648 79.9869 97.1356 79.8758 97.0805 79.7771C97.0254 79.6783 96.9463 79.595 96.8505 79.5349L90.2863 75.419C90.1791 75.3518 90.0551 75.3162 89.9285 75.3163C89.802 75.3164 89.678 75.3522 89.5709 75.4197ZM100.767 89.7207C100.861 89.5693 100.891 89.3866 100.851 89.213C100.81 89.0393 100.702 88.8889 100.551 88.7947L93.8862 84.6509C93.8113 84.6042 93.7278 84.5728 93.6407 84.5584C93.5536 84.544 93.4645 84.5469 93.3785 84.567C93.2925 84.587 93.2113 84.6239 93.1395 84.6753C93.0678 84.7267 93.0068 84.7918 92.9602 84.8668C92.8661 85.0183 92.8359 85.2009 92.8764 85.3746C92.9169 85.5482 93.0248 85.6987 93.1762 85.7929L99.8407 89.9367C99.9157 89.9834 99.9991 90.0148 100.086 90.0292C100.173 90.0437 100.262 90.0408 100.348 90.0207C100.435 90.0006 100.516 89.9638 100.587 89.9123C100.659 89.8609 100.72 89.7958 100.767 89.7207ZM81.3514 81.1157C81.2572 81.2671 81.2271 81.4497 81.2676 81.6234C81.3081 81.7971 81.4159 81.9475 81.5673 82.0417L98.0166 92.2694C98.0916 92.3161 98.175 92.3475 98.2622 92.3619C98.3493 92.3763 98.4384 92.3734 98.5244 92.3534C98.6104 92.3333 98.6916 92.2965 98.7634 92.245C98.8352 92.1935 98.8961 92.1284 98.9427 92.0534C99.0368 91.9019 99.0669 91.7193 99.0264 91.5457C98.9859 91.372 98.8781 91.2215 98.7267 91.1274L82.2774 80.8997C82.2024 80.853 82.119 80.8216 82.0319 80.8072C81.9447 80.7928 81.8556 80.7957 81.7696 80.8158C81.6836 80.8359 81.6024 80.8727 81.5307 80.9241C81.4589 80.9756 81.398 81.0407 81.3514 81.1157Z" fill="#3B61F4"/>
<path d="M20.7266 54.1789V85.7062C20.729 87.8477 21.5807 89.9008 23.095 91.415C24.6092 92.9293 26.6623 93.781 28.8038 93.7834C30.5532 93.7887 32.2561 93.2208 33.6521 92.1667C34.1329 91.8064 34.7175 91.6117 35.3182 91.6117C35.919 91.6117 36.5036 91.8064 36.9844 92.1667C38.2994 93.1573 39.887 93.7197 41.5324 93.7778L41.6098 91.6944C40.3901 91.6522 39.213 91.2355 38.2383 90.5011C37.3955 89.8701 36.371 89.5291 35.3182 89.5291C34.2654 89.5291 33.241 89.8701 32.3982 90.5011C31.3632 91.2824 30.1007 91.7032 28.8038 91.699C27.215 91.6971 25.6918 91.0651 24.5683 89.9417C23.4449 88.8182 22.8129 87.295 22.811 85.7062V80.2345H41.5711V78.1501H22.811V57.3056H45.74V55.2211H22.811V54.1789C22.8063 51.5334 23.6425 48.9549 25.1989 46.8157C26.7554 44.6765 28.9514 43.0874 31.47 42.2778C31.6795 42.21 31.8623 42.0776 31.9918 41.8995C32.1214 41.7214 32.1911 41.5067 32.191 41.2865V38.5456H38.4444V41.2865C38.4443 41.5067 38.514 41.7214 38.6436 41.8995C38.7732 42.0776 38.9559 42.21 39.1655 42.2778C41.5286 43.035 43.6117 44.4807 45.1479 46.4295C46.6841 48.3783 47.6033 50.7414 47.7878 53.216L49.8661 53.0574C49.6613 50.3 48.6739 47.6584 47.02 45.4428C45.366 43.2271 43.1141 41.5294 40.5288 40.5491V38.5456H42.6133V36.4611H40.5288V32.2922C40.5288 32.0158 40.419 31.7507 40.2236 31.5553C40.0281 31.3598 39.763 31.25 39.4866 31.25H31.1488C30.8724 31.25 30.6073 31.3598 30.4119 31.5553C30.2164 31.7507 30.1066 32.0158 30.1066 32.2922V36.4611H28.0222V38.5456H30.1066V40.5491C27.3439 41.5996 24.9666 43.4664 23.291 45.9012C21.6154 48.336 20.7209 51.2233 20.7266 54.1789ZM32.191 33.3344H38.4444V36.4611H32.191V33.3344Z" fill="#3B61F4" stroke="white" stroke-width="0.2"/>
<path d="M29.5285 45.5104L30.6828 47.2457C31.3232 46.8207 32.0189 46.4854 32.7504 46.2494L32.1092 44.2656C31.1961 44.5605 30.3277 44.9794 29.5285 45.5104ZM27.0299 53.2513C27.2334 51.4317 28.0292 49.7295 29.2949 48.4065L27.7917 46.9616C26.2086 48.6166 25.2129 50.7457 24.9576 53.0216L27.0299 53.2513ZM24.8945 59.3901H26.979V61.4746H24.8945V59.3901ZM24.8945 63.559H26.979V72.939H24.8945V63.559ZM47.8235 65.6435H49.9079V68.7701H47.8235V65.6435Z" fill="#3B61F4" stroke="white" stroke-width="0.2"/>
<path d="M51.9911 54.1797C49.6533 54.1797 47.8222 55.5532 47.8222 57.3064V60.8319L45.386 62.0543C44.8647 62.3123 44.426 62.7112 44.1198 63.2057C43.8136 63.7002 43.652 64.2706 43.6533 64.8523V69.813C43.6533 69.9748 43.6909 70.1344 43.7633 70.2792L44.5724 71.8975L43.7633 73.5158C43.6909 73.6605 43.6533 73.8201 43.6533 73.9819V76.0664C43.6533 76.2282 43.6909 76.3878 43.7633 76.5325L44.5724 78.1508L43.7633 79.7691C43.6909 79.9139 43.6533 80.0735 43.6533 80.2353V82.3197C43.6533 82.4815 43.6909 82.6411 43.7633 82.7859L44.5724 84.4042L43.7633 86.0225C43.6909 86.1672 43.6533 86.3268 43.6533 86.4886V90.6575C43.6546 91.4864 43.9844 92.2809 44.5705 92.867C45.1566 93.4531 45.9511 93.7829 46.78 93.7842H57.2022C57.4406 93.7831 57.6781 93.7563 57.9107 93.7043C58.599 93.545 59.213 93.157 59.6523 92.6035C60.0915 92.0501 60.3301 91.3641 60.3289 90.6575V86.4886C60.3289 86.3268 60.2913 86.1672 60.219 86.0225L59.4098 84.4042L60.219 82.7859C60.2913 82.6411 60.3289 82.4815 60.3289 82.3197V80.2353C60.3289 80.0735 60.2913 79.9139 60.219 79.7691L59.4098 78.1508L60.219 76.5325C60.2913 76.3878 60.3289 76.2282 60.3289 76.0664V73.9819C60.3289 73.8201 60.2913 73.6605 60.219 73.5158L59.4098 71.8975L60.219 70.2792C60.2913 70.1344 60.3289 69.9748 60.3289 69.813V64.8523C60.3304 64.2709 60.169 63.7006 59.8629 63.2063C59.5568 62.7119 59.1183 62.3132 58.5971 62.0554L56.16 60.8319V57.3064C56.16 55.5532 54.329 54.1797 51.9911 54.1797ZM51.9911 56.2641C53.2634 56.2641 54.0756 56.8814 54.0756 57.3064C54.0756 57.7313 53.2634 58.3486 51.9911 58.3486C50.7188 58.3486 49.9067 57.7313 49.9067 57.3064C49.9067 56.8814 50.7188 56.2641 51.9911 56.2641ZM57.6638 63.919C57.8382 64.0047 57.985 64.1376 58.0876 64.3026C58.1903 64.4676 58.2446 64.658 58.2445 64.8523V69.5672L57.6002 70.8553H48.8644V72.9397H57.6002L58.2445 74.2278V75.8205L57.6002 77.1086H48.8644V79.1931H57.6002L58.2445 80.4811V82.0739L57.6002 83.3619H48.8644V85.4464H57.6002L58.2445 86.7345V90.6575C58.243 90.8898 58.1648 91.1152 58.0219 91.2984C57.8791 91.4817 57.6797 91.6126 57.4547 91.6707C57.3718 91.6891 57.2872 91.6989 57.2022 91.6997H46.78C46.6191 91.6991 46.4606 91.6613 46.3167 91.5894C46.1729 91.5174 46.0475 91.4132 45.9505 91.2849C45.8121 91.1051 45.7373 90.8844 45.7378 90.6575V86.7345L46.67 84.8703C46.7423 84.7256 46.78 84.566 46.78 84.4042C46.78 84.2424 46.7423 84.0828 46.67 83.938L45.7378 82.0739V80.4811L46.67 78.617C46.7423 78.4722 46.78 78.3126 46.78 78.1508C46.78 77.989 46.7423 77.8294 46.67 77.6847L45.7378 75.8205V74.2278L46.67 72.3636C46.7423 72.2189 46.78 72.0593 46.78 71.8975C46.78 71.7357 46.7423 71.5761 46.67 71.4314L45.7378 69.5672V64.8523C45.7378 64.6578 45.7922 64.4671 45.895 64.302C45.9979 64.1368 46.1449 64.0038 46.3195 63.918L49.3316 62.4067C49.5045 62.3202 49.6499 62.1872 49.7515 62.0227C49.853 61.8582 49.9068 61.6686 49.9067 61.4753V60.0115C50.5664 60.2897 51.2751 60.433 51.9911 60.433C52.7071 60.433 53.4159 60.2897 54.0756 60.0115V61.4753C54.0755 61.6686 54.1293 61.8581 54.2308 62.0225C54.3324 62.187 54.4778 62.32 54.6506 62.4065L57.6638 63.919Z" fill="#3B61F4" stroke="white" stroke-width="0.2"/>
</g>
<defs>
<clipPath id="clip0_1765_32138">
<rect width="100" height="100" fill="white" transform="translate(19.0352 15.7148)"/>
</clipPath>
</defs>
</svg>
