<svg width="60" height="61" viewBox="0 0 60 61" fill="none" xmlns="http://www.w3.org/2000/svg">
<path d="M47.4628 19.4988L41.5003 13.5363C41.3775 13.4124 41.2225 13.3253 41.0528 13.2847C40.8832 13.2441 40.7055 13.2516 40.5399 13.3065C40.3743 13.3613 40.2273 13.4613 40.1154 13.5951C40.0035 13.729 39.9312 13.8914 39.9066 14.0641C39.808 14.7535 39.5194 15.4017 39.0731 15.9363C38.6269 16.4709 38.0406 16.8707 37.3799 17.0909C36.7193 17.311 36.0104 17.3429 35.3326 17.1829C34.6549 17.0228 34.0351 16.6773 33.5427 16.1849C33.0503 15.6924 32.7047 15.0726 32.5447 14.3949C32.3847 13.7172 32.4165 13.0083 32.6367 12.3476C32.8568 11.687 33.2566 11.1007 33.7912 10.6544C34.3258 10.2081 34.9741 9.91956 35.6634 9.82097C35.8361 9.79634 35.9986 9.72401 36.1324 9.61212C36.2662 9.50022 36.3662 9.35321 36.421 9.1876C36.4759 9.02199 36.4834 8.84437 36.4428 8.6747C36.4022 8.50504 36.3151 8.35007 36.1912 8.22722L30.2288 2.26472C30.0529 2.08897 29.8145 1.99023 29.5659 1.99023C29.3173 1.99023 29.0789 2.08897 28.9031 2.26472L23.7253 7.44066C23.4704 6.48646 22.9687 5.61621 22.2707 4.91742C21.5727 4.21863 20.703 3.71594 19.7491 3.45991C18.7952 3.20387 17.7907 3.20351 16.8366 3.45887C15.8825 3.71423 15.0125 4.21631 14.314 4.9146C13.6155 5.61289 13.1132 6.48279 12.8576 7.43681C12.602 8.39083 12.6021 9.39534 12.8578 10.3493C13.1136 11.3033 13.6161 12.1731 14.3147 12.8713C15.0133 13.5695 15.8834 14.0714 16.8375 14.3266L11.6653 19.4988C11.4896 19.6746 11.3908 19.913 11.3908 20.1616C11.3908 20.4102 11.4896 20.6486 11.6653 20.8244L16.8394 26.005C15.7036 26.3102 14.6919 26.9636 13.9468 27.8735C13.2016 28.7834 12.7604 29.904 12.6852 31.0777C12.61 32.2513 12.9045 33.4191 13.5274 34.4166C14.1503 35.4142 15.0702 36.1915 16.1578 36.6391L13.9688 42.9532C13.6779 43.6083 13.5413 44.3214 13.5692 45.0377C13.5972 45.7539 13.789 46.4542 14.13 47.0847L17.4206 54.866C17.4328 54.8959 17.4469 54.925 17.4628 54.9532C17.6933 55.3755 17.8135 55.8492 17.8125 56.3303V57.2303C17.8125 57.479 17.9113 57.7174 18.0871 57.8933C18.2629 58.0691 18.5014 58.1678 18.75 58.1678C18.9986 58.1678 19.2371 58.0691 19.4129 57.8933C19.5887 57.7174 19.6875 57.479 19.6875 57.2303V56.3303C19.6865 55.5504 19.4933 54.7828 19.125 54.0953L15.8334 46.3141C15.8204 46.282 15.8054 46.2506 15.7884 46.2203C15.5736 45.8282 15.4541 45.3909 15.4398 44.944C15.4255 44.497 15.5166 44.053 15.7059 43.6478L17.9991 37.0478C18.0975 37.0478 18.1941 37.0619 18.2934 37.0619C19.5308 37.063 20.7338 36.6553 21.7156 35.9022C22.6974 35.1492 23.4029 34.0929 23.7225 32.8975L25.3125 34.481V44.1053C25.3125 44.354 25.4113 44.5924 25.5871 44.7683C25.7629 44.9441 26.0014 45.0428 26.25 45.0428C26.4986 45.0428 26.7371 44.9441 26.9129 44.7683C27.0887 44.5924 27.1875 44.354 27.1875 44.1053V30.9803C27.1875 30.2344 27.4838 29.5191 28.0113 28.9916C28.5387 28.4642 29.2541 28.1678 30 28.1678C30.7459 28.1678 31.4613 28.4642 31.9887 28.9916C32.5162 29.5191 32.8125 30.2344 32.8125 30.9803V42.3344C32.8142 43.6441 33.119 44.9356 33.7031 46.1078L34.0463 46.796C34.4999 47.7076 34.736 48.7121 34.736 49.7303C34.736 50.7486 34.4999 51.7531 34.0463 52.6647L33.1088 54.5397C32.9141 54.9306 32.8127 55.3612 32.8125 55.7978V57.2303C32.8125 57.479 32.9113 57.7174 33.0871 57.8933C33.2629 58.0691 33.5014 58.1678 33.75 58.1678C33.9986 58.1678 34.2371 58.0691 34.4129 57.8933C34.5887 57.7174 34.6875 57.479 34.6875 57.2303V55.7978C34.6865 55.6529 34.7186 55.5095 34.7812 55.3788L35.7188 53.5038C36.3019 52.3315 36.6054 51.0401 36.6054 49.7308C36.6054 48.4215 36.3019 47.1301 35.7188 45.9578L35.3756 45.2697C35.0395 44.5946 34.8217 43.8669 34.7316 43.1182C35.3405 43.7292 36.0642 44.2139 36.8611 44.5442C37.658 44.8745 38.5123 45.044 39.375 45.0428C40.1209 45.0428 40.8363 44.7465 41.3637 44.2191C41.8912 43.6916 42.1875 42.9763 42.1875 42.2303V36.8866C43.3975 36.5872 44.4736 35.894 45.2465 34.916C46.0194 33.9381 46.4452 32.7309 46.4569 31.4845C46.4686 30.238 46.0656 29.0231 45.3112 28.0308C44.5568 27.0385 43.4939 26.3252 42.2897 26.0032L47.4628 20.8225C47.638 20.6468 47.7364 20.4088 47.7364 20.1607C47.7364 19.9125 47.638 19.6745 47.4628 19.4988ZM39.375 43.1678C38.1323 43.1664 36.9408 42.672 36.0621 41.7933C35.1833 40.9145 34.689 39.7231 34.6875 38.4803V33.6053L35.4038 32.8891C35.6992 33.9993 36.3284 34.9921 37.2063 35.7331C38.0842 36.4742 39.1684 36.9279 40.3125 37.0328V42.2303C40.3125 42.479 40.2137 42.7174 40.0379 42.8933C39.8621 43.0691 39.6236 43.1678 39.375 43.1678ZM39.5091 26.1363C39.3684 26.2754 39.2753 26.4554 39.2431 26.6506C39.211 26.8458 39.2414 27.0462 39.33 27.223C39.4187 27.3999 39.561 27.5442 39.7366 27.6353C39.9122 27.7263 40.1122 27.7595 40.3078 27.73C41.0867 27.6198 41.8805 27.7573 42.577 28.1231C43.2734 28.4888 43.8372 29.0643 44.1885 29.7682C44.5398 30.472 44.661 31.2685 44.5347 32.0449C44.4084 32.8214 44.0412 33.5384 43.485 34.0947C42.9287 34.6509 42.2116 35.0182 41.4352 35.1444C40.6588 35.2707 39.8623 35.1496 39.1584 34.7982C38.4546 34.4469 37.8791 33.8831 37.5133 33.1867C37.1476 32.4902 37.0101 31.6964 37.1203 30.9175C37.1498 30.7219 37.1166 30.522 37.0255 30.3463C36.9345 30.1707 36.7902 30.0284 36.6133 29.9397C36.4365 29.8511 36.2361 29.8207 36.0409 29.8528C35.8457 29.885 35.6656 29.9781 35.5266 30.1188L34.6875 30.9597C34.6848 29.7165 34.1883 28.5253 33.3073 27.6482C32.4263 26.771 31.2329 26.2798 29.9897 26.2825C28.7465 26.2853 27.5553 26.7818 26.6781 27.6628C25.801 28.5438 25.3098 29.7371 25.3125 30.9803V31.8297L23.5941 30.1113C23.455 29.9706 23.275 29.8775 23.0797 29.8453C22.8845 29.8132 22.6842 29.8436 22.5073 29.9322C22.3304 30.0209 22.1861 30.1632 22.0951 30.3388C22.004 30.5145 21.9708 30.7144 22.0003 30.91C22.1105 31.6889 21.9731 32.4827 21.6073 33.1792C21.2415 33.8756 20.666 34.4394 19.9622 34.7907C19.2584 35.1421 18.4619 35.2632 17.6854 35.1369C16.909 35.0107 16.1919 34.6434 15.6357 34.0872C15.0794 33.5309 14.7122 32.8139 14.5859 32.0374C14.4597 31.261 14.5808 30.4645 14.9321 29.7607C15.2835 29.0568 15.8472 28.4813 16.5437 28.1156C17.2401 27.7498 18.0339 27.6123 18.8128 27.7225C19.0085 27.7523 19.2086 27.7193 19.3844 27.6283C19.5602 27.5373 19.7027 27.393 19.7915 27.2161C19.8803 27.0392 19.9108 26.8387 19.8786 26.6434C19.8465 26.448 19.7533 26.2679 19.6125 26.1288L13.6528 20.1616L19.6191 14.1991C19.7598 14.06 19.8528 13.88 19.885 13.6848C19.9172 13.4896 19.8867 13.2892 19.7981 13.1123C19.7095 12.9355 19.5671 12.7912 19.3915 12.7001C19.2159 12.609 19.0159 12.5759 18.8203 12.6053C18.0425 12.7141 17.2501 12.5758 16.555 12.2101C15.86 11.8443 15.2973 11.2696 14.9464 10.5669C14.5954 9.86425 14.474 9.06914 14.5992 8.29376C14.7244 7.51838 15.0899 6.80188 15.6441 6.24535C16.3588 5.56444 17.3081 5.18463 18.2953 5.18463C19.2825 5.18463 20.2318 5.56444 20.9466 6.24535C21.3568 6.65668 21.6659 7.15771 21.8494 7.70892C22.0329 8.26013 22.0859 8.84643 22.0041 9.4216C21.9746 9.61722 22.0078 9.81716 22.0988 9.99279C22.1899 10.1684 22.3342 10.3107 22.5111 10.3994C22.6879 10.488 22.8883 10.5184 23.0835 10.4863C23.2787 10.4541 23.4587 10.361 23.5978 10.2203L29.5688 4.25597L33.7697 8.45785C32.9577 8.84567 32.2505 9.42265 31.7077 10.1404C31.1648 10.8581 30.802 11.6955 30.6499 12.5825C30.4977 13.4694 30.5605 14.3799 30.8331 15.2375C31.1057 16.0951 31.5801 16.8748 32.2164 17.5111C32.8527 18.1475 33.6324 18.6218 34.49 18.8944C35.3476 19.167 36.2581 19.2298 37.1451 19.0777C38.032 18.9255 38.8695 18.5627 39.5872 18.0199C40.3049 17.477 40.8819 16.7699 41.2697 15.9578L45.4716 20.1588L39.5091 26.1363ZM57.1875 21.6053H51.5625C51.3139 21.6053 51.0754 21.5066 50.8996 21.3308C50.7238 21.1549 50.625 20.9165 50.625 20.6678C50.625 20.4192 50.7238 20.1807 50.8996 20.0049C51.0754 19.8291 51.3139 19.7303 51.5625 19.7303H57.1875C57.4361 19.7303 57.6746 19.8291 57.8504 20.0049C58.0262 20.1807 58.125 20.4192 58.125 20.6678C58.125 20.9165 58.0262 21.1549 57.8504 21.3308C57.6746 21.5066 57.4361 21.6053 57.1875 21.6053ZM50.5491 10.8241C50.3427 10.8241 50.1421 10.756 49.9784 10.6304C49.8147 10.5047 49.697 10.3286 49.6435 10.1292C49.5901 9.92991 49.604 9.71852 49.683 9.52785C49.7619 9.33719 49.9016 9.17792 50.0803 9.07472L54.9553 6.26222C55.1705 6.13986 55.4254 6.10759 55.6643 6.17246C55.9032 6.23732 56.1068 6.39405 56.2306 6.60845C56.3544 6.82284 56.3883 7.07749 56.325 7.31683C56.2618 7.55617 56.1064 7.76077 55.8928 7.88597L51.0178 10.6985C50.8754 10.7811 50.7137 10.8244 50.5491 10.8241ZM55.4194 35.1991C55.2548 35.1994 55.093 35.1561 54.9506 35.0735L50.0756 32.261C49.9681 32.1999 49.8738 32.1181 49.7981 32.0204C49.7223 31.9227 49.6666 31.8109 49.6342 31.6916C49.6018 31.5723 49.5934 31.4478 49.6093 31.3251C49.6252 31.2025 49.6653 31.0843 49.7271 30.9772C49.7889 30.8702 49.8713 30.7764 49.9695 30.7013C50.0677 30.6262 50.1798 30.5712 50.2994 30.5396C50.4189 30.508 50.5435 30.5004 50.666 30.5171C50.7885 30.5339 50.9065 30.5747 51.0131 30.6372L55.8881 33.4497C56.0668 33.5529 56.2065 33.7122 56.2855 33.9029C56.3644 34.0935 56.3783 34.3049 56.3249 34.5042C56.2715 34.7036 56.1538 34.8797 55.9901 35.0054C55.8263 35.131 55.6257 35.1991 55.4194 35.1991ZM8.4375 21.6053H2.8125C2.56386 21.6053 2.3254 21.5066 2.14959 21.3308C1.97377 21.1549 1.875 20.9165 1.875 20.6678C1.875 20.4192 1.97377 20.1807 2.14959 20.0049C2.3254 19.8291 2.56386 19.7303 2.8125 19.7303H8.4375C8.68614 19.7303 8.9246 19.8291 9.10041 20.0049C9.27623 20.1807 9.375 20.4192 9.375 20.6678C9.375 20.9165 9.27623 21.1549 9.10041 21.3308C8.9246 21.5066 8.68614 21.6053 8.4375 21.6053ZM9.45094 10.8241C9.28632 10.8244 9.12457 10.7811 8.98219 10.6985L4.10719 7.88597C3.89362 7.76077 3.73824 7.55617 3.67496 7.31683C3.61169 7.07749 3.64565 6.82284 3.76943 6.60845C3.89321 6.39405 4.09677 6.23732 4.33569 6.17246C4.5746 6.10759 4.82948 6.13986 5.04469 6.26222L9.91969 9.07472C10.0984 9.17792 10.2381 9.33719 10.317 9.52785C10.396 9.71852 10.4099 9.92991 10.3565 10.1292C10.303 10.3286 10.1853 10.5047 10.0216 10.6304C9.8579 10.756 9.65731 10.8241 9.45094 10.8241ZM4.58063 35.1991C4.37426 35.1991 4.17366 35.131 4.00994 35.0054C3.84622 34.8797 3.72852 34.7036 3.67511 34.5042C3.6217 34.3049 3.63555 34.0935 3.71452 33.9029C3.79349 33.7122 3.93316 33.5529 4.11188 33.4497L8.98688 30.6372C9.09354 30.5747 9.21151 30.5339 9.33401 30.5171C9.45651 30.5004 9.58111 30.508 9.70064 30.5396C9.82017 30.5712 9.93227 30.6262 10.0305 30.7013C10.1287 30.7764 10.2111 30.8702 10.2729 30.9772C10.3347 31.0843 10.3748 31.2025 10.3907 31.3251C10.4066 31.4478 10.3982 31.5723 10.3658 31.6916C10.3334 31.8109 10.2777 31.9227 10.2019 32.0204C10.1262 32.1181 10.0319 32.1999 9.92438 32.261L5.04938 35.0735C4.907 35.1561 4.74524 35.1994 4.58063 35.1991Z" fill="#3B61F4"/>
</svg>
