<svg width="131" height="131" viewBox="0 0 131 131" fill="none" xmlns="http://www.w3.org/2000/svg">
<circle cx="65.0605" cy="65.7148" r="64.9629" fill="white"/>
<circle cx="65.0605" cy="65.7148" r="64.4629" stroke="#3B61F4" stroke-opacity="0.06"/>
<path d="M61.9326 61.6504H68.1876V67.9054H61.9326V61.6504Z" fill="#3B61F4" stroke="white" stroke-width="3"/>
<path d="M95.7101 31.9386H91.957V25.6836H85.702V31.9386H44.4189V25.6836H38.1639V31.9386H34.4109C29.2373 31.9386 25.0283 36.1476 25.0283 41.3211V96.3653C25.0283 101.539 29.2373 105.748 34.4109 105.748H66.587C64.4203 103.959 62.5397 101.85 61.0102 99.4928H34.4109C32.6863 99.4928 31.2833 98.0898 31.2833 96.3653V55.0822H98.8376V61.6654C101.194 63.195 103.304 65.0757 105.093 67.2423V41.3211C105.093 36.1476 100.884 31.9386 95.7101 31.9386ZM98.8376 48.8272H31.2833V41.3211C31.2833 39.5966 32.6863 38.1936 34.4109 38.1936H38.1639V44.4487H44.4189V38.1936H85.702V44.4487H91.957V38.1936H95.7101C97.4346 38.1936 98.8376 39.5966 98.8376 41.3211V48.8272Z" fill="#3B61F4" stroke="white" stroke-width="3"/>
<path d="M83.9818 63.5273C72.3414 63.5273 62.8711 72.9976 62.8711 84.638C62.8711 96.2785 72.3414 105.749 83.9818 105.749C95.6222 105.749 105.092 96.2785 105.092 84.638C105.092 72.9976 95.6222 63.5273 83.9818 63.5273ZM83.9818 99.4937C75.7904 99.4937 69.1261 92.8295 69.1261 84.638C69.1261 76.4466 75.7904 69.7824 83.9818 69.7824C92.1732 69.7824 98.8375 76.4466 98.8375 84.638C98.8375 92.8295 92.1732 99.4937 83.9818 99.4937Z" fill="#3B61F4" stroke="white" stroke-width="3"/>
<path d="M86.9533 74.1604H80.6982V87.7651H92.27V81.5101H86.9533V74.1604ZM49.4231 74.1604H55.6782V80.4155H49.4231V74.1604ZM36.9131 74.1604H43.1681V80.4155H36.9131V74.1604ZM36.9131 61.6504H43.1681V67.9054H36.9131V61.6504ZM36.9131 86.6705H43.1681V92.9255H36.9131V86.6705ZM49.4231 61.6504H55.6782V67.9054H49.4231V61.6504ZM49.4231 86.6705H55.6782V92.9255H49.4231V86.6705Z" fill="#3B61F4" stroke="white" stroke-width="3"/>
</svg>
