<svg width="60" height="61" viewBox="0 0 60 61" fill="none" xmlns="http://www.w3.org/2000/svg">
<path d="M53.4375 8.46289H48.75V6.58789C48.75 5.59333 48.3549 4.6395 47.6516 3.93624C46.9484 3.23298 45.9946 2.83789 45 2.83789C44.0054 2.83789 43.0516 3.23298 42.3484 3.93624C41.6451 4.6395 41.25 5.59333 41.25 6.58789V8.46289H33.75V6.58789C33.75 5.59333 33.3549 4.6395 32.6516 3.93624C31.9484 3.23298 30.9946 2.83789 30 2.83789C29.0054 2.83789 28.0516 3.23298 27.3484 3.93624C26.6451 4.6395 26.25 5.59333 26.25 6.58789V8.46289H18.75V6.58789C18.75 5.59333 18.3549 4.6395 17.6516 3.93624C16.9484 3.23298 15.9946 2.83789 15 2.83789C14.0054 2.83789 13.0516 3.23298 12.3483 3.93624C11.6451 4.6395 11.25 5.59333 11.25 6.58789V8.46289H6.5625C5.3193 8.46289 4.12701 8.95675 3.24794 9.83583C2.36886 10.7149 1.875 11.9072 1.875 13.1504V50.6504C1.875 51.8936 2.36886 53.0859 3.24794 53.965C4.12701 54.844 5.3193 55.3379 6.5625 55.3379H32.8125C33.0611 55.3379 33.2996 55.2391 33.4754 55.0633C33.6512 54.8875 33.75 54.649 33.75 54.4004C33.75 54.1517 33.6512 53.9133 33.4754 53.7375C33.2996 53.5617 33.0611 53.4629 32.8125 53.4629H6.5625C5.81726 53.4607 5.10319 53.1636 4.57622 52.6367C4.04926 52.1097 3.75223 51.3956 3.75 50.6504V21.5879H56.25V37.5254C56.25 37.774 56.3488 38.0125 56.5246 38.1883C56.7004 38.3641 56.9389 38.4629 57.1875 38.4629C57.4361 38.4629 57.6746 38.3641 57.8504 38.1883C58.0262 38.0125 58.125 37.774 58.125 37.5254V13.1504C58.125 11.9072 57.6311 10.7149 56.7521 9.83583C55.873 8.95675 54.6807 8.46289 53.4375 8.46289ZM43.125 6.58789C43.125 6.09061 43.3225 5.6137 43.6742 5.26207C44.0258 4.91043 44.5027 4.71289 45 4.71289C45.4973 4.71289 45.9742 4.91043 46.3258 5.26207C46.6775 5.6137 46.875 6.09061 46.875 6.58789V12.2129C46.875 12.7102 46.6775 13.1871 46.3258 13.5387C45.9742 13.8903 45.4973 14.0879 45 14.0879C44.5027 14.0879 44.0258 13.8903 43.6742 13.5387C43.3225 13.1871 43.125 12.7102 43.125 12.2129V6.58789ZM28.125 6.58789C28.125 6.09061 28.3225 5.6137 28.6742 5.26207C29.0258 4.91043 29.5027 4.71289 30 4.71289C30.4973 4.71289 30.9742 4.91043 31.3258 5.26207C31.6775 5.6137 31.875 6.09061 31.875 6.58789V12.2129C31.875 12.7102 31.6775 13.1871 31.3258 13.5387C30.9742 13.8903 30.4973 14.0879 30 14.0879C29.5027 14.0879 29.0258 13.8903 28.6742 13.5387C28.3225 13.1871 28.125 12.7102 28.125 12.2129V6.58789ZM13.125 6.58789C13.125 6.09061 13.3225 5.6137 13.6742 5.26207C14.0258 4.91043 14.5027 4.71289 15 4.71289C15.4973 4.71289 15.9742 4.91043 16.3258 5.26207C16.6775 5.6137 16.875 6.09061 16.875 6.58789V12.2129C16.875 12.7102 16.6775 13.1871 16.3258 13.5387C15.9742 13.8903 15.4973 14.0879 15 14.0879C14.5027 14.0879 14.0258 13.8903 13.6742 13.5387C13.3225 13.1871 13.125 12.7102 13.125 12.2129V6.58789ZM56.25 19.7129H3.75V13.1504C3.75223 12.4052 4.04926 11.6911 4.57622 11.1641C5.10319 10.6371 5.81726 10.3401 6.5625 10.3379H11.25V12.2129C11.25 13.2075 11.6451 14.1613 12.3483 14.8645C13.0516 15.5678 14.0054 15.9629 15 15.9629C15.9946 15.9629 16.9484 15.5678 17.6516 14.8645C18.3549 14.1613 18.75 13.2075 18.75 12.2129V10.3379H26.25V12.2129C26.25 13.2075 26.6451 14.1613 27.3484 14.8645C28.0516 15.5678 29.0054 15.9629 30 15.9629C30.9946 15.9629 31.9484 15.5678 32.6516 14.8645C33.3549 14.1613 33.75 13.2075 33.75 12.2129V10.3379H41.25V12.2129C41.25 13.2075 41.6451 14.1613 42.3484 14.8645C43.0516 15.5678 44.0054 15.9629 45 15.9629C45.9946 15.9629 46.9484 15.5678 47.6516 14.8645C48.3549 14.1613 48.75 13.2075 48.75 12.2129V10.3379H53.4375C54.1827 10.3401 54.8968 10.6371 55.4238 11.1641C55.9507 11.6911 56.2478 12.4052 56.25 13.1504V19.7129Z" fill="#3B61F4"/>
<path d="M28.125 28.1504C28.125 27.6531 27.9275 27.1762 27.5758 26.8246C27.2242 26.4729 26.7473 26.2754 26.25 26.2754H22.5C22.0027 26.2754 21.5258 26.4729 21.1742 26.8246C20.8225 27.1762 20.625 27.6531 20.625 28.1504V30.9629C20.625 31.4602 20.8225 31.9371 21.1742 32.2887C21.5258 32.6403 22.0027 32.8379 22.5 32.8379H26.25C26.7473 32.8379 27.2242 32.6403 27.5758 32.2887C27.9275 31.9371 28.125 31.4602 28.125 30.9629V28.1504ZM22.5 30.9629V28.1504H26.25V30.9629H22.5ZM16.875 28.1504C16.875 27.6531 16.6775 27.1762 16.3258 26.8246C15.9742 26.4729 15.4973 26.2754 15 26.2754H11.25C10.7527 26.2754 10.2758 26.4729 9.92418 26.8246C9.57254 27.1762 9.375 27.6531 9.375 28.1504V30.9629C9.375 31.4602 9.57254 31.9371 9.92418 32.2887C10.2758 32.6403 10.7527 32.8379 11.25 32.8379H15C15.4973 32.8379 15.9742 32.6403 16.3258 32.2887C16.6775 31.9371 16.875 31.4602 16.875 30.9629V28.1504ZM11.25 30.9629V28.1504H15V30.9629H11.25ZM48.75 32.8379C49.2473 32.8379 49.7242 32.6403 50.0758 32.2887C50.4275 31.9371 50.625 31.4602 50.625 30.9629V28.1504C50.625 27.6531 50.4275 27.1762 50.0758 26.8246C49.7242 26.4729 49.2473 26.2754 48.75 26.2754H45C44.5027 26.2754 44.0258 26.4729 43.6742 26.8246C43.3225 27.1762 43.125 27.6531 43.125 28.1504V30.9629C43.125 31.4602 43.3225 31.9371 43.6742 32.2887C44.0258 32.6403 44.5027 32.8379 45 32.8379H48.75ZM45 28.1504H48.75V30.9629H45V28.1504ZM28.125 36.5879C28.125 36.0906 27.9275 35.6137 27.5758 35.2621C27.2242 34.9104 26.7473 34.7129 26.25 34.7129H22.5C22.0027 34.7129 21.5258 34.9104 21.1742 35.2621C20.8225 35.6137 20.625 36.0906 20.625 36.5879V39.4004C20.625 39.8977 20.8225 40.3746 21.1742 40.7262C21.5258 41.0778 22.0027 41.2754 22.5 41.2754H26.25C26.7473 41.2754 27.2242 41.0778 27.5758 40.7262C27.9275 40.3746 28.125 39.8977 28.125 39.4004V36.5879ZM22.5 39.4004V36.5879H26.25V39.4004H22.5ZM16.875 36.5879C16.875 36.0906 16.6775 35.6137 16.3258 35.2621C15.9742 34.9104 15.4973 34.7129 15 34.7129H11.25C10.7527 34.7129 10.2758 34.9104 9.92418 35.2621C9.57254 35.6137 9.375 36.0906 9.375 36.5879V39.4004C9.375 39.8977 9.57254 40.3746 9.92418 40.7262C10.2758 41.0778 10.7527 41.2754 11.25 41.2754H15C15.4973 41.2754 15.9742 41.0778 16.3258 40.7262C16.6775 40.3746 16.875 39.8977 16.875 39.4004V36.5879ZM11.25 39.4004V36.5879H15V39.4004H11.25ZM26.25 43.1504H22.5C22.0027 43.1504 21.5258 43.3479 21.1742 43.6996C20.8225 44.0512 20.625 44.5281 20.625 45.0254V47.8379C20.625 48.3352 20.8225 48.8121 21.1742 49.1637C21.5258 49.5153 22.0027 49.7129 22.5 49.7129H26.25C26.7473 49.7129 27.2242 49.5153 27.5758 49.1637C27.9275 48.8121 28.125 48.3352 28.125 47.8379V45.0254C28.125 44.5281 27.9275 44.0512 27.5758 43.6996C27.2242 43.3479 26.7473 43.1504 26.25 43.1504ZM22.5 47.8379V45.0254H26.25V47.8379H22.5ZM33.75 32.8379H37.5C37.9973 32.8379 38.4742 32.6403 38.8258 32.2887C39.1775 31.9371 39.375 31.4602 39.375 30.9629V28.1504C39.375 27.6531 39.1775 27.1762 38.8258 26.8246C38.4742 26.4729 37.9973 26.2754 37.5 26.2754H33.75C33.2527 26.2754 32.7758 26.4729 32.4242 26.8246C32.0725 27.1762 31.875 27.6531 31.875 28.1504V30.9629C31.875 31.4602 32.0725 31.9371 32.4242 32.2887C32.7758 32.6403 33.2527 32.8379 33.75 32.8379ZM33.75 28.1504H37.5V30.9629H33.75V28.1504ZM31.875 39.4004C31.875 39.8977 32.0725 40.3746 32.4242 40.7262C32.7758 41.0778 33.2527 41.2754 33.75 41.2754C33.9986 41.2754 34.2371 41.1766 34.4129 41.0008C34.5887 40.825 34.6875 40.5865 34.6875 40.3379C34.6875 40.0893 34.5887 39.8508 34.4129 39.675C34.2371 39.4992 33.9986 39.4004 33.75 39.4004V36.5879H37.5C37.7486 36.5879 37.9871 36.4891 38.1629 36.3133C38.3387 36.1375 38.4375 35.899 38.4375 35.6504C38.4375 35.4018 38.3387 35.1633 38.1629 34.9875C37.9871 34.8117 37.7486 34.7129 37.5 34.7129H33.75C33.2527 34.7129 32.7758 34.9104 32.4242 35.2621C32.0725 35.6137 31.875 36.0906 31.875 36.5879V39.4004ZM15 43.1504H11.25C10.7527 43.1504 10.2758 43.3479 9.92418 43.6996C9.57254 44.0512 9.375 44.5281 9.375 45.0254V47.8379C9.375 48.3352 9.57254 48.8121 9.92418 49.1637C10.2758 49.5153 10.7527 49.7129 11.25 49.7129H15C15.4973 49.7129 15.9742 49.5153 16.3258 49.1637C16.6775 48.8121 16.875 48.3352 16.875 47.8379V45.0254C16.875 44.5281 16.6775 44.0512 16.3258 43.6996C15.9742 43.3479 15.4973 43.1504 15 43.1504ZM11.25 47.8379V45.0254H15V47.8379H11.25Z" fill="#3B61F4"/>
<path d="M45.9375 34.7129C43.527 34.7129 41.1707 35.4277 39.1665 36.7669C37.1623 38.106 35.6002 40.0095 34.6777 42.2364C33.7553 44.4634 33.5139 46.9139 33.9842 49.2781C34.4544 51.6422 35.6152 53.8138 37.3196 55.5183C39.0241 57.2227 41.1957 58.3835 43.5598 58.8537C45.924 59.324 48.3745 59.0826 50.6015 58.1602C52.8284 57.2377 54.7319 55.6756 56.071 53.6714C57.4102 51.6672 58.125 49.3109 58.125 46.9004C58.1213 43.6692 56.8361 40.5714 54.5513 38.2866C52.2665 36.0018 49.1687 34.7166 45.9375 34.7129ZM45.9375 57.2129C43.8979 57.2129 41.9041 56.6081 40.2082 55.4749C38.5123 54.3418 37.1905 52.7312 36.41 50.8468C35.6295 48.9625 35.4252 46.889 35.8232 44.8885C36.2211 42.8881 37.2032 41.0506 38.6455 39.6084C40.0877 38.1661 41.9252 37.184 43.9256 36.786C45.9261 36.3881 47.9996 36.5924 49.8839 37.3729C51.7683 38.1534 53.3789 39.4752 54.512 41.1711C55.6452 42.867 56.25 44.8608 56.25 46.9004C56.2468 49.6344 55.1593 52.2556 53.226 54.1889C51.2927 56.1221 48.6716 57.2097 45.9375 57.2129Z" fill="#3B61F4"/>
<path d="M51.3539 42.9702L44.062 50.2621L40.748 46.9471C40.5712 46.7763 40.3343 46.6818 40.0885 46.6839C39.8427 46.6861 39.6076 46.7847 39.4338 46.9585C39.2599 47.1323 39.1614 47.3675 39.1592 47.6133C39.1571 47.8591 39.2516 48.0959 39.4223 48.2727L43.3992 52.2505C43.575 52.4263 43.8134 52.525 44.062 52.525C44.3106 52.525 44.549 52.4263 44.7248 52.2505L52.6795 44.2958C52.8503 44.119 52.9448 43.8822 52.9427 43.6364C52.9405 43.3906 52.8419 43.1554 52.6681 42.9816C52.4943 42.8078 52.2592 42.7092 52.0133 42.7071C51.7675 42.7049 51.5307 42.7994 51.3539 42.9702Z" fill="#3B61F4"/>
</svg>
