<svg width="60" height="61" viewBox="0 0 60 61" fill="none" xmlns="http://www.w3.org/2000/svg">
<path d="M11.25 58.1682H3.75C3.50136 58.1682 3.2629 58.0694 3.08709 57.8936C2.91127 57.7178 2.8125 57.4793 2.8125 57.2307V48.7932C2.8125 48.5446 2.91127 48.3061 3.08709 48.1303C3.2629 47.9545 3.50136 47.8557 3.75 47.8557H11.25C11.4986 47.8557 11.7371 47.9545 11.9129 48.1303C12.0887 48.3061 12.1875 48.5446 12.1875 48.7932V57.2307C12.1875 57.4793 12.0887 57.7178 11.9129 57.8936C11.7371 58.0694 11.4986 58.1682 11.25 58.1682ZM4.6875 56.2932H10.3125V49.7307H4.6875V56.2932ZM22.5 58.1682H15C14.7514 58.1682 14.5129 58.0694 14.3371 57.8936C14.1613 57.7178 14.0625 57.4793 14.0625 57.2307V41.2932C14.0625 41.0446 14.1613 40.8061 14.3371 40.6303C14.5129 40.4545 14.7514 40.3557 15 40.3557H22.5C22.7486 40.3557 22.9871 40.4545 23.1629 40.6303C23.3387 40.8061 23.4375 41.0446 23.4375 41.2932V57.2307C23.4375 57.4793 23.3387 57.7178 23.1629 57.8936C22.9871 58.0694 22.7486 58.1682 22.5 58.1682ZM15.9375 56.2932H21.5625V42.2307H15.9375V56.2932ZM33.75 58.1682H26.25C26.0014 58.1682 25.7629 58.0694 25.5871 57.8936C25.4113 57.7178 25.3125 57.4793 25.3125 57.2307V31.9182C25.3125 31.6696 25.4113 31.4311 25.5871 31.2553C25.7629 31.0795 26.0014 30.9807 26.25 30.9807H33.75C33.9986 30.9807 34.2371 31.0795 34.4129 31.2553C34.5887 31.4311 34.6875 31.6696 34.6875 31.9182V57.2307C34.6875 57.4793 34.5887 57.7178 34.4129 57.8936C34.2371 58.0694 33.9986 58.1682 33.75 58.1682ZM27.1875 56.2932H32.8125V32.8557H27.1875V56.2932ZM45 58.1682H37.5C37.2514 58.1682 37.0129 58.0694 36.8371 57.8936C36.6613 57.7178 36.5625 57.4793 36.5625 57.2307V22.5432C36.5625 22.2945 36.6613 22.0561 36.8371 21.8803C37.0129 21.7045 37.2514 21.6057 37.5 21.6057H45C45.2486 21.6057 45.4871 21.7045 45.6629 21.8803C45.8387 22.0561 45.9375 22.2945 45.9375 22.5432V57.2307C45.9375 57.4793 45.8387 57.7178 45.6629 57.8936C45.4871 58.0694 45.2486 58.1682 45 58.1682ZM38.4375 56.2932H44.0625V23.4807H38.4375V56.2932ZM43.3894 16.1841C43.1407 16.1841 42.9023 16.0854 42.7265 15.9095C42.5506 15.7337 42.4519 15.4953 42.4519 15.2466C42.4519 15.0141 42.5119 9.49975 45.8006 6.211C49.0238 2.98319 55.5431 1.77944 55.8197 1.73069C55.9683 1.70436 56.1211 1.71429 56.265 1.75964C56.4089 1.80499 56.5398 1.88442 56.6465 1.99118C56.7531 2.09794 56.8325 2.22888 56.8777 2.37286C56.9229 2.51684 56.9327 2.66961 56.9062 2.81819C56.8556 3.09382 55.6509 9.61319 52.4278 12.8363C49.125 16.1382 43.5666 16.156 43.3894 16.1841ZM54.7444 3.89444C52.7438 4.40538 49.1034 5.55569 47.1263 7.53288C45.1491 9.51007 44.5659 12.6413 44.3962 14.2398C45.9956 14.0701 49.1241 13.4898 51.1041 11.5107C53.0841 9.53163 54.2344 5.89319 54.7444 3.89444Z" fill="#3B61F4"/>
<path d="M41.2496 23.4809C41.001 23.4809 40.7625 23.3821 40.5867 23.2063C40.4109 23.0305 40.3121 22.792 40.3121 22.5434C40.3121 13.6287 47.9996 9.68089 48.3305 9.51682C48.5529 9.40494 48.8107 9.38598 49.0471 9.46413C49.2835 9.54228 49.4791 9.71113 49.591 9.93354C49.7029 10.156 49.7218 10.4137 49.6437 10.6501C49.5655 10.8865 49.3967 11.0821 49.1743 11.194C48.8855 11.3374 42.1871 14.8081 42.1871 22.5434C42.1871 22.792 42.0883 23.0305 41.9125 23.2063C41.7367 23.3821 41.4982 23.4809 41.2496 23.4809ZM36.999 13.4384C35.9077 13.4384 32.5177 13.2621 30.4477 11.1884C28.074 8.81557 27.4262 3.85245 27.3999 3.64339C27.3821 3.50161 27.3969 3.35764 27.4432 3.22247C27.4895 3.08729 27.5661 2.96449 27.6672 2.86345C27.7682 2.76242 27.891 2.68581 28.0262 2.63949C28.1614 2.59317 28.3053 2.57836 28.4471 2.5962C28.6562 2.62245 33.6183 3.27026 35.9921 5.64401C38.4296 8.08151 38.2421 12.3584 38.2308 12.5393C38.2189 12.7709 38.1215 12.9898 37.9575 13.1538C37.7935 13.3178 37.5746 13.4152 37.343 13.4271C37.2286 13.4366 37.1138 13.4404 36.999 13.4384ZM29.4896 4.68682C29.8083 6.1737 30.4965 8.58964 31.7733 9.86651C33.0621 10.9246 34.6717 11.5142 36.339 11.539C36.3139 9.87178 35.7243 8.26231 34.6665 6.97339C33.459 5.76682 31.1077 5.03932 29.4896 4.68682Z" fill="#3B61F4"/>
<path d="M41.2499 23.4808C41.0012 23.4808 40.7628 23.3821 40.587 23.2063C40.4111 23.0304 40.3124 22.792 40.3124 22.5433C40.3124 14.7199 32.3717 9.31429 32.2911 9.26085C32.0843 9.12273 31.9407 8.90809 31.8921 8.66414C31.8435 8.4202 31.8938 8.16694 32.0319 7.96007C32.17 7.7532 32.3847 7.60967 32.6286 7.56106C32.8726 7.51245 33.1258 7.56273 33.3327 7.70085C33.6936 7.94179 42.1874 13.7055 42.1874 22.5433C42.1874 22.792 42.0886 23.0304 41.9128 23.2063C41.737 23.3821 41.4985 23.4808 41.2499 23.4808Z" fill="#3B61F4"/>
</svg>
