<svg width="60" height="61" viewBox="0 0 60 61" fill="none" xmlns="http://www.w3.org/2000/svg">
<g clip-path="url(#clip0_2083_11680)">
<path d="M50 44.1988L47.4531 42.6729C46.6765 42.2086 45.7886 41.9633 44.8838 41.9629H41.0508C40.2662 41.9616 39.4847 42.0624 38.7261 42.2627L27.1772 45.3629C26.5551 45.5347 25.9833 45.8534 25.51 46.2923C25.0368 46.7312 24.676 47.2774 24.458 47.8849L14.2998 42.3893C13.4759 41.9206 12.5118 41.7613 11.581 41.9401C11.2298 42.0022 10.8893 42.114 10.5697 42.2722C9.84759 42.6181 9.24828 43.1764 8.852 43.8722C8.50546 44.4781 8.32319 45.164 8.32325 45.8619C8.31797 46.5617 8.49806 47.2503 8.84523 47.8579C9.19239 48.4654 9.69424 48.9702 10.2998 49.3209L28.5059 60.2141C29.2966 60.7037 30.2081 60.963 31.1381 60.9629H45.2281C45.8573 60.9633 46.4809 60.8445 47.0659 60.6129L50 59.4542V60.9629H60V40.9629H50V44.1988ZM46.331 58.7529C45.9807 58.8912 45.6076 58.9624 45.231 58.9629H31.1381C30.5746 58.9625 30.0226 58.8038 29.5449 58.5049L11.314 47.5992C11.0097 47.4234 10.7574 47.1701 10.5828 46.8651C10.4082 46.5602 10.3175 46.2144 10.3199 45.8629C10.3213 45.5121 10.4137 45.1675 10.5879 44.8629C10.7871 44.5176 11.0867 44.241 11.4467 44.0698C11.605 43.9927 11.7733 43.9382 11.9467 43.9078C12.0732 43.8842 12.2015 43.8722 12.3301 43.8721C12.6739 43.8712 13.0118 43.9609 13.3101 44.1319L24.3251 50.0841C24.3379 50.1451 24.3379 50.2052 24.354 50.2662C24.8277 52.0118 26.4111 53.2242 28.2202 53.2262C28.7769 53.1752 29.3282 53.0769 29.8681 52.9322L40.2578 50.1519L39.7421 48.2198L29.3862 50.9878C28.9301 51.0928 28.3417 51.2129 28.2202 51.2232C27.781 51.224 27.3536 51.0802 27.0043 50.8139C26.6549 50.5477 26.4028 50.1738 26.2871 49.7501C26.2549 49.6289 26.2359 49.5049 26.229 49.3799C26.229 49.3799 26.2213 49.1377 26.229 49.0528C26.2663 48.6442 26.427 48.2567 26.6898 47.9417C26.9526 47.6266 27.305 47.399 27.7003 47.2891L39.2441 44.2007C39.8334 44.0429 40.4407 43.963 41.0508 43.9629H44.8838C45.4268 43.9629 45.9595 44.1104 46.4248 44.3892L50 46.5298V57.3028L46.331 58.7529ZM52 42.9629H58V58.9629H52V42.9629ZM41.2441 8.96293L35.88 3.59918C35.0464 2.76066 34.0547 2.09588 32.9623 1.64335C31.8699 1.19083 30.6986 0.959556 29.5163 0.962927H16.9438C16.1677 0.964202 15.4025 1.14486 14.7079 1.4908L12.4666 2.6118C12.0175 2.83781 11.5183 2.94587 11.016 2.9258L10 2.89018V0.962927H0V22.9629H10V19.9629H11.7002L12.3053 20.3629C13.9983 21.487 15.9691 22.1213 18 22.1957V34.9629H60V8.96293H41.2441ZM8 20.9629H2V2.96293H8V20.9629ZM13.4121 18.6988L12.2998 17.9629H10V4.89118L10.9429 4.92493C11.78 4.95472 12.6112 4.77458 13.3609 4.40093L15.6001 3.2798C16.0174 3.07136 16.4774 2.96288 16.9438 2.96293H29.516C30.4356 2.96027 31.3466 3.14007 32.1962 3.49191C33.0459 3.84376 33.8173 4.36066 34.4658 5.01268L38.416 8.96293H30.1641L27.7369 6.53618L26.3231 7.9498L33.3872 15.0142C34.1719 15.7954 34.1744 17.0649 33.3931 17.8502C32.6114 18.6348 31.3419 18.6373 30.5571 17.8561L24.6571 11.9561L23.9571 12.5562C22.0239 14.1978 19.1982 14.2398 17.2167 12.6558L16.6373 12.1861L15.377 13.7398L15.9629 14.2148C16.5757 14.7046 17.2636 15.0923 18 15.3629V20.1949C16.3632 20.1223 14.7771 19.6051 13.4121 18.6989V18.6988ZM27.6371 17.7627L29.146 19.2721C30.7124 20.8149 33.227 20.8174 34.796 19.2769C33.3281 21.5498 33.9072 24.5748 36.1109 26.1446C38.3145 27.7144 41.3628 27.2734 43.0312 25.1441C44.6997 23.0142 44.3985 19.9488 42.3466 18.1851C40.2954 16.4214 37.2191 16.5831 35.3643 18.5518C35.7009 18.023 35.9063 17.4214 35.9633 16.7971C36.0203 16.1728 35.9272 15.5439 35.6919 14.9629H49.0831C49.5131 17.4791 51.4839 19.4498 54 19.8799V24.0459C51.4839 24.4761 49.5131 26.4468 49.083 28.9629H28.917C28.4869 26.4468 26.5161 24.4761 24 24.0459V19.8799C25.4292 19.6391 26.7221 18.8866 27.6373 17.7627H27.6371ZM36 21.9629C36 20.3062 37.3433 18.9629 39 18.9629C40.6567 18.9629 42 20.3062 42 21.9629C42 23.6197 40.6567 24.9629 39 24.9629C37.3433 24.9629 36 23.6197 36 21.9629ZM58 32.9629H20V15.7817C21.5854 15.9007 23.166 15.4968 24.5 14.6319L26.206 16.3379C25.836 16.8407 25.3531 17.2496 24.7963 17.5318C24.2395 17.8141 23.6243 17.9617 23 17.9629H22V25.9629H23C25.209 25.9629 27 27.7539 27 29.9629V30.9629H51V29.9629C51 27.7539 52.791 25.9629 55 25.9629H56V17.9629H55C52.791 17.9629 51 16.1719 51 13.9629V12.9629H34.164L32.164 10.9629H58V32.9629Z" fill="#3B61F4"/>
</g>
<defs>
<clipPath id="clip0_2083_11680">
<rect width="60" height="60" fill="white" transform="translate(0 0.962891)"/>
</clipPath>
</defs>
</svg>
