<svg width="131" height="131" viewBox="0 0 131 131" fill="none" xmlns="http://www.w3.org/2000/svg">
<circle cx="65.7461" cy="65.7925" r="64.9629" fill="white"/>
<circle cx="65.7461" cy="65.7925" r="64.4629" stroke="#3B61F4" stroke-opacity="0.06"/>
<path d="M27.5287 57.643H37.7192C38.626 57.6415 39.5068 57.339 40.2231 56.783C40.9395 56.2269 41.451 55.4488 41.6775 54.5706C42.2357 54.9801 42.7776 55.3636 43.3481 55.7185C43.1888 56.1968 43.165 56.7099 43.2794 57.2009C43.3939 57.6919 43.6421 58.1416 43.9965 58.5002L44.4182 58.0785L43.9978 58.5002L59.4528 73.9238C59.9647 74.4356 60.659 74.7231 61.3828 74.7231C62.1067 74.7231 62.8009 74.4356 63.3128 73.9238L92.2492 44.9875C92.7593 44.4758 93.0457 43.7827 93.0457 43.0602C93.0457 42.3377 92.7593 41.6446 92.2492 41.1329L76.8105 25.6779C76.2989 25.1683 75.6061 24.8821 74.8839 24.8821C74.1618 24.8821 73.469 25.1683 72.9574 25.6779L66.1887 32.4479L65.4366 31.8119C64.6224 31.0801 63.6157 30.5967 62.5355 30.4189C61.4552 30.2412 60.3467 30.3764 59.3409 30.8087C54.2667 32.677 48.9545 33.8211 43.561 34.2073C43.3967 33.7972 43.1661 33.4168 42.8786 33.0813C42.4938 32.6484 42.0217 32.3021 41.4932 32.0652C40.9648 31.8282 40.3921 31.7061 39.813 31.7068H27.5287C26.8047 31.7068 26.1103 31.9944 25.5984 32.5063C25.0864 33.0183 24.7988 33.7126 24.7988 34.4366V54.9105C24.7985 55.2692 24.8688 55.6245 25.0058 55.956C25.1429 56.2875 25.3439 56.5887 25.5974 56.8425C25.8509 57.0963 26.152 57.2976 26.4834 57.435C26.8148 57.5723 27.17 57.643 27.5287 57.643ZM48.8215 53.6738C49.5887 54.4417 50.0197 55.4827 50.0197 56.5682C50.0197 57.6536 49.5887 58.6947 48.8215 59.4625L45.9237 56.5688L48.8215 53.6738ZM61.3787 71.9966L58.4824 69.1057C59.2499 68.3405 60.2895 67.9109 61.3733 67.9109C62.4571 67.9109 63.4966 68.3405 64.2642 69.1057L61.3787 71.9966ZM87.4228 45.9498C86.656 45.182 86.2253 44.1412 86.2253 43.0561C86.2253 41.971 86.656 40.9303 87.4228 40.1625L90.3151 43.0534L87.4228 45.9498ZM74.8819 27.6093L77.7796 30.5084C77.0105 31.2741 75.9693 31.704 74.8839 31.704C73.7986 31.704 72.7574 31.2741 71.9883 30.5084L74.8819 27.6093ZM70.0528 32.4425C71.334 33.7204 73.0696 34.4381 74.8792 34.4381C76.6887 34.4381 78.4244 33.7204 79.7055 32.4425L85.4969 38.227C84.2199 39.5078 83.5028 41.2427 83.5028 43.0513C83.5028 44.86 84.2199 46.5949 85.4969 47.8757L66.1955 67.1784C64.9161 65.9015 63.1823 65.1843 61.3746 65.1843C59.567 65.1843 57.8332 65.9015 56.5537 67.1784L50.7569 61.3925C52.0355 60.1128 52.7537 58.3778 52.7537 56.5688C52.7537 54.7599 52.0355 53.0249 50.7569 51.7452L60.3032 42.203C60.5498 41.9544 60.8826 41.81 61.2327 41.7999C61.5828 41.7897 61.9234 41.9145 62.184 42.1484C62.3983 42.3395 62.831 42.7176 63.3592 43.1762C62.067 44.0961 61.0696 45.3714 60.4884 46.8473C59.9072 48.3232 59.7671 49.9362 60.0852 51.4902C60.4032 53.0442 61.1657 54.4724 62.2801 55.6013C63.3944 56.7301 64.8126 57.5111 66.3623 57.8493C67.9121 58.1875 69.5267 58.0684 71.01 57.5064C72.4933 56.9444 73.7815 55.9637 74.7181 54.6835C75.6546 53.4033 76.1992 51.8786 76.2857 50.2948C76.3722 48.7109 75.9969 47.136 75.2054 45.7614C75.7355 44.8993 75.9986 43.8996 75.9616 42.8882C75.9399 42.2042 75.7794 41.5317 75.4899 40.9115C75.2003 40.2914 74.7878 39.7366 74.2772 39.2807L68.2811 34.2169L70.0528 32.4425ZM73.0857 47.5931C73.4905 48.5002 73.6397 49.5007 73.517 50.4864C73.3944 51.4721 73.0047 52.4056 72.39 53.1858C71.7753 53.9661 70.9589 54.5634 70.0293 54.9133C69.0996 55.2632 68.092 55.3523 67.1154 55.171C66.1388 54.9897 65.2303 54.5449 64.4882 53.8846C63.7461 53.2244 63.1986 52.3738 62.9048 51.4249C62.6111 50.4761 62.5824 49.4649 62.8217 48.5009C63.0611 47.5368 63.5594 46.6566 64.2628 45.9552C64.6351 45.593 65.0598 45.2888 65.5226 45.053L67.5059 46.766C68.2491 47.4415 69.1764 47.8809 70.17 48.0281C71.1635 48.1754 72.1784 48.024 73.0857 47.5931ZM60.4055 33.3242C60.9412 33.094 61.5318 33.0231 62.1068 33.1199C62.6817 33.2167 63.2165 33.4772 63.6472 33.8702L72.4865 41.3404C72.9434 41.7737 73.2098 42.3706 73.2272 43.0001C73.2446 43.6296 73.0116 44.2402 72.5793 44.6981C72.1386 45.1075 71.561 45.3378 70.9596 45.3441C70.3581 45.3504 69.7759 45.1323 69.3267 44.7322C69.3267 44.7322 64.8647 40.8791 64.0035 40.1079C63.2227 39.4091 62.2039 39.0362 61.1565 39.0659C60.1092 39.0956 59.113 39.5257 58.3732 40.2676L45.0734 53.5674C44.0382 52.9297 43.0444 52.2272 42.0978 51.464L43.8026 36.9276C49.4786 36.5114 55.0677 35.2984 60.4055 33.3242ZM27.5287 34.4366H39.813C40.0052 34.4368 40.1952 34.4775 40.3705 34.5561C40.5459 34.6347 40.7027 34.7495 40.8306 34.8929C40.9586 35.0363 41.0548 35.2051 41.113 35.3883C41.1712 35.5714 41.1901 35.7648 41.1683 35.9558L39.08 53.6998C39.042 54.0344 38.8815 54.3432 38.6295 54.5667C38.3776 54.7902 38.0519 54.9126 37.7151 54.9105L27.5287 54.9146V34.4366ZM103.964 82.2144H98.5046C98.0273 82.2153 97.5586 82.3419 97.1457 82.5815C96.7329 82.8211 96.3904 83.1653 96.1528 83.5793H93.0449C92.1593 83.577 91.2979 83.2899 90.5881 82.7603L88.3332 81.0678C87.4785 80.4211 86.5 79.957 85.4584 79.7043C84.4168 79.4517 83.3344 79.4159 82.2784 79.5992L60.9856 83.1644C60.1342 83.2944 59.3382 83.6668 58.6927 84.237C58.0472 84.8072 57.5795 85.5512 57.3454 86.3801L50.9821 81.7394C50.3135 81.2558 49.5234 80.9679 48.7005 80.9079C47.8775 80.8479 47.054 81.0181 46.3223 81.3995C45.5985 81.7575 44.9891 82.3104 44.5625 82.996C44.1359 83.6815 43.9092 84.4725 43.9077 85.28C43.9069 85.9292 44.05 86.5705 44.3269 87.1578C44.6037 87.745 45.0074 88.2635 45.5088 88.6759L65.4926 104.744C67.1764 106.064 69.2547 106.781 71.3945 106.78C72.3711 106.786 73.3412 106.62 74.2609 106.292L91.6704 100.194C92.1116 100.038 92.5767 99.9587 93.0449 99.9611H96.1556C96.3932 100.374 96.7353 100.718 97.1476 100.958C97.5599 101.197 98.0278 101.324 98.5046 101.326H103.964C104.688 101.326 105.383 101.038 105.895 100.526C106.407 100.015 106.694 99.3202 106.694 98.5962V84.9469C106.694 84.5882 106.624 84.233 106.487 83.9014C106.35 83.5699 106.149 83.2687 105.896 83.0149C105.642 82.7611 105.341 82.5598 105.01 82.4224C104.678 82.2851 104.323 82.2144 103.964 82.2144ZM90.76 97.6243L73.3436 103.72C72.308 104.054 71.2061 104.128 70.1351 103.936C69.064 103.744 68.0566 103.291 67.2015 102.619L47.2286 86.5616C47.0417 86.4048 46.8918 86.2085 46.7897 85.9869C46.6875 85.7654 46.6356 85.524 46.6376 85.28C46.64 84.9784 46.7271 84.6836 46.8891 84.4292C47.051 84.1748 47.2812 83.9711 47.5534 83.8414C47.8366 83.6907 48.1559 83.6213 48.476 83.6408C48.7962 83.6603 49.1047 83.768 49.3674 83.9519L66.9381 96.7535C67.3964 97.082 67.9512 97.2484 68.5146 97.2267C69.0781 97.2049 69.6184 96.9962 70.0501 96.6334L75.8032 91.7634H80.7606C81.1226 91.7634 81.4698 91.6196 81.7258 91.3636C81.9817 91.1076 82.1255 90.7604 82.1255 90.3984C82.1255 90.0364 81.9817 89.6893 81.7258 89.4333C81.4698 89.1773 81.1226 89.0335 80.7606 89.0335H61.5289C61.3165 89.0348 61.1061 88.9925 60.9108 88.9092C60.7154 88.8258 60.5393 88.7032 60.3933 88.549C60.2391 88.3986 60.1183 88.2175 60.0388 88.0174C59.9593 87.8172 59.9229 87.6026 59.9319 87.3874C59.9707 86.9993 60.1405 86.636 60.4135 86.3574C60.6864 86.0787 61.0461 85.9014 61.4333 85.8546L82.7684 82.2812C83.4552 82.1704 84.1572 82.1988 84.8328 82.3648C85.5083 82.5308 86.1436 82.8311 86.7008 83.2476L88.9501 84.9497C90.1332 85.8323 91.5689 86.3109 93.0449 86.3146H95.7748V97.234H93.0449C92.2665 97.2315 91.4935 97.3636 90.76 97.6243ZM64.7351 91.7715H71.5761L68.4108 94.4495L64.7351 91.7715ZM98.5046 98.5962V84.9469H103.964V98.5962H98.5046Z" fill="#3B61F4"/>
</svg>
