<svg width="642" height="479" viewBox="0 0 642 479" fill="none" xmlns="http://www.w3.org/2000/svg">
<path d="M321.27 478.693C458.645 478.693 570.01 472.191 570.01 464.171C570.01 456.15 458.645 449.648 321.27 449.648C183.894 449.648 72.5293 456.15 72.5293 464.171C72.5293 472.191 183.894 478.693 321.27 478.693Z" fill="#F5F5F5"/>
<path d="M448.597 139.843L435.871 134.711C435.871 134.711 419.077 165.334 414.267 166.886C407.724 168.99 394.176 174.84 386.146 175.866C385.055 177.149 383.272 181.139 383.439 182.589C394.228 186.193 417.936 181.408 423.016 177.637C434.575 169.08 448.597 139.843 448.597 139.843Z" fill="#E58A7B"/>
<path d="M452.509 132.877C454.883 141.639 442.028 159.266 442.028 159.266L425.184 149.824C425.184 149.824 428.34 142.575 432.188 135.199C438.359 123.281 449.802 122.883 452.509 132.877Z" fill="#3B61F4"/>
<path opacity="0.2" d="M452.509 132.877C454.883 141.639 442.028 159.266 442.028 159.266L425.184 149.824C425.184 149.824 428.34 142.575 432.188 135.199C438.359 123.281 449.802 122.883 452.509 132.877Z" fill="black"/>
<path opacity="0.2" d="M431.869 153.594L438.502 157.315L439.669 136.955C435.808 139.919 433.088 148.848 431.869 153.594Z" fill="black"/>
<path d="M441.426 126.284C441.426 126.284 428.315 155.457 435.961 209.775H487.623C488.444 201.847 485.724 163.154 495.564 125.797C489.897 124.689 484.163 123.956 478.399 123.603C471.088 123.179 463.759 123.179 456.449 123.603C451.381 124.117 446.359 125.014 441.426 126.284Z" fill="#3B61F4"/>
<path opacity="0.2" d="M441.426 126.284C441.426 126.284 428.315 155.457 435.961 209.775H487.623C488.444 201.847 485.724 163.154 495.564 125.797C489.897 124.689 484.163 123.956 478.399 123.603C471.088 123.179 463.759 123.179 456.449 123.603C451.381 124.117 446.359 125.014 441.426 126.284Z" fill="black"/>
<g style="mix-blend-mode:multiply">
<path d="M429.444 465.325C429.367 466.71 448.956 467.826 473.19 467.826C497.424 467.826 517.155 466.71 517.232 465.325C517.309 463.939 497.732 462.836 473.485 462.836C449.239 462.836 429.533 463.952 429.444 465.325Z" fill="#E8ECF1"/>
</g>
<path d="M463.929 428.92L454.766 432.467L462.658 452.857L471.821 449.31L463.929 428.92Z" fill="#E58A7B"/>
<path d="M504.787 455.46H495.127L491.586 433.1H501.246L504.787 455.46Z" fill="#E58A7B"/>
<path d="M494.459 454.344H505.313C505.501 454.344 505.683 454.412 505.826 454.534C505.969 454.656 506.065 454.825 506.095 455.011L507.494 463.593C507.523 463.809 507.506 464.028 507.443 464.236C507.38 464.444 507.273 464.636 507.13 464.799C506.986 464.962 506.809 465.093 506.611 465.181C506.412 465.27 506.197 465.315 505.98 465.313C502.195 465.248 500.373 465.017 495.601 465.017C492.663 465.017 486.621 465.325 482.541 465.325C478.462 465.325 478.192 461.323 479.873 460.951C487.416 459.321 490.341 457.102 492.856 454.947C493.299 454.557 493.869 454.343 494.459 454.344Z" fill="#263238"/>
<path d="M462.387 451.035L472.651 448.033C472.834 447.982 473.029 447.994 473.204 448.069C473.379 448.144 473.523 448.276 473.613 448.444L477.462 456.141C477.551 456.336 477.597 456.549 477.595 456.764C477.594 456.978 477.546 457.19 477.454 457.385C477.363 457.579 477.23 457.751 477.065 457.888C476.9 458.026 476.707 458.126 476.499 458.181C472.766 459.207 470.264 459.836 465.595 461.196C462.375 462.132 459.09 463.659 455.909 464.672C453.702 465.378 448.519 465.404 445.838 465.404C441.874 465.404 440.989 461.221 442.695 461.029C446.993 460.554 447.57 460.772 449.943 459.579C453.827 457.882 457.346 455.451 460.309 452.421C460.868 451.784 461.585 451.306 462.387 451.035Z" fill="#263238"/>
<path d="M387.763 175.813L377.14 171.361L372.766 183.138C377.119 183.801 381.549 183.801 385.902 183.138L387.763 175.813Z" fill="#E58A7B"/>
<path d="M369.237 171.057L368.955 178.882L372.765 183.116L377.14 171.339L369.237 171.057Z" fill="#E58A7B"/>
<path d="M465.186 430.653L455.994 434.201L460.065 444.745L469.256 441.196L465.186 430.653Z" fill="#CF6F64"/>
<path d="M501.246 433.1H491.586L493.42 444.633H503.081L501.246 433.1Z" fill="#CF6F64"/>
<path opacity="0.2" d="M434.318 195.086C434.511 197.408 434.729 199.781 435.011 202.219L473.421 189.749C479.419 187.971 484.632 184.202 488.2 179.063C488.354 175.637 488.546 172.032 488.841 168.273C488.97 166.452 489.124 164.579 489.29 162.68C489.457 160.781 489.688 158.677 489.932 156.65L434.318 195.086Z" fill="black"/>
<path d="M446.865 153.007L445.582 152.853C446.339 146.438 451.124 141.384 456.166 141.512V142.795C451.753 142.705 447.545 147.26 446.865 153.007Z" fill="white"/>
<path d="M453.702 164.847H453.484V163.564C457.898 163.731 462.041 159.125 462.721 153.391L464.004 153.545C463.324 159.818 458.693 164.847 453.702 164.847Z" fill="white"/>
<path d="M477.68 98.8789C475.871 105.948 473.742 118.892 478.399 123.6C478.399 123.6 475.14 130.772 462.016 130.772C450.021 130.772 456.448 123.6 456.448 123.6C464.428 121.727 464.569 115.903 463.517 110.386L477.68 98.8789Z" fill="#E58A7B"/>
<path d="M471.907 103.576L463.529 110.388C463.789 111.656 463.939 112.944 463.978 114.237C466.429 116.675 471.342 110.504 471.842 107.348C472.097 106.105 472.118 104.827 471.907 103.576Z" fill="#CF6F64"/>
<path d="M449.123 98.7906C449.705 99.8009 450.491 100.68 451.429 101.373C452.367 102.066 453.438 102.559 454.575 102.819C457.654 103.499 459.193 100.664 458.347 97.8156C457.59 95.2498 455.062 91.7988 451.932 92.389C451.262 92.5271 450.634 92.8239 450.102 93.2544C449.569 93.685 449.148 94.2368 448.873 94.8637C448.598 95.4906 448.477 96.1743 448.52 96.8575C448.564 97.5407 448.77 98.2036 449.123 98.7906Z" fill="#CF6F64"/>
<path d="M454.216 76.1748C449.418 78.3685 447.724 97.4323 453.754 100.255C459.783 103.077 463.299 72.0053 454.216 76.1748Z" fill="#263238"/>
<path d="M479.143 88.2462C477.988 97.8166 477.86 103.449 472.728 108.349C471.138 109.975 469.13 111.131 466.924 111.687C464.719 112.244 462.403 112.18 460.231 111.503C458.06 110.826 456.118 109.562 454.619 107.851C453.121 106.14 452.124 104.048 451.74 101.806C450.188 93.211 452.33 79.0094 461.926 75.1992C463.943 74.3099 466.16 73.976 468.349 74.2322C470.537 74.4885 472.618 75.3254 474.374 76.6564C476.13 77.9873 477.499 79.7639 478.337 81.8017C479.176 83.8396 479.454 86.0646 479.143 88.2462Z" fill="#E58A7B"/>
<path d="M463.377 81.1247C470.484 79.3159 475.705 78.0843 473.832 83.9984C471.356 91.901 468.38 99.5471 472.37 99.8935C474.807 100.112 485.584 95.5445 484.211 90.9132C483.018 86.8849 488.06 85.7816 488.958 83.7418C492.28 76.3524 482.774 77.3274 484.468 72.8372C486.161 68.3471 476.77 61.1116 471.639 64.7165C463.287 70.5409 448.957 70.4511 456.488 60.8679C461.889 54.03 452.254 55.4284 452.254 55.4284C452.254 55.4284 458.078 58.8794 448.277 64.2162C437.911 69.9123 447.418 85.2172 463.377 81.1247Z" fill="#263238"/>
<path d="M482.914 98.7906C481.511 100.821 479.403 102.257 477 102.819C473.831 103.499 472.612 100.664 473.805 97.8156C474.87 95.2498 477.795 91.7988 480.823 92.389C483.85 92.9791 484.543 96.2761 482.914 98.7906Z" fill="#E58A7B"/>
<path d="M435.96 209.773C435.96 209.773 427.287 287.389 426.607 316.844C425.915 347.479 455.999 443.068 455.999 443.068L471.393 436.653C471.393 436.653 453.433 349.314 455.999 319.23C458.718 286.426 469.956 209.825 469.956 209.825L435.96 209.773Z" fill="#06193D"/>
<path opacity="0.2" d="M457.513 231.082C450.598 245.425 455.255 273.79 459.001 290.596C460.425 278.729 462.118 265.849 463.722 253.931C463.568 235.611 462.144 221.461 457.513 231.082Z" fill="black"/>
<path d="M470.715 431.572C470.792 431.572 472.536 436.473 472.536 436.473L454.781 443.939L451.984 438.731L470.715 431.572Z" fill="#4CAF4F"/>
<path d="M454.293 209.773C454.293 209.773 460.926 283.591 465.313 311.238C470.137 341.527 489.047 442.401 489.047 442.401H506.738C506.738 442.401 496.141 343.977 494.14 313.983C491.959 281.449 487.623 209.773 487.623 209.773H454.293Z" fill="#06193D"/>
<path d="M507.008 437.794C507.085 437.794 507.598 442.733 507.598 442.733H488.149L486.764 437.062L507.008 437.794Z" fill="#4CAF4F"/>
<path opacity="0.2" d="M500.233 431.946C500.193 431.946 500.154 431.932 500.123 431.906C500.093 431.881 500.072 431.844 500.066 431.805C499.964 430.907 490.406 342.002 488.61 315.061C486.66 285.837 482.734 221.012 482.696 220.358C482.694 220.337 482.697 220.316 482.704 220.295C482.711 220.275 482.722 220.257 482.736 220.241C482.751 220.225 482.768 220.213 482.788 220.204C482.807 220.196 482.828 220.191 482.85 220.191C482.892 220.191 482.933 220.207 482.963 220.236C482.994 220.264 483.013 220.303 483.017 220.345C483.017 221 486.981 285.773 488.931 315.049C490.727 341.989 500.284 430.83 500.374 431.792C500.378 431.813 500.377 431.835 500.372 431.856C500.366 431.877 500.357 431.896 500.343 431.913C500.33 431.93 500.313 431.944 500.294 431.954C500.275 431.964 500.254 431.97 500.233 431.972V431.946Z" fill="black"/>
<path d="M464.466 90.9131C464.466 91.6957 463.979 92.3243 463.466 92.3243C462.952 92.3243 462.58 91.6957 462.632 90.9131C462.683 90.1306 463.119 89.502 463.632 89.502C464.145 89.502 464.518 90.1434 464.466 90.9131Z" fill="#263238"/>
<path d="M455.666 90.9131C455.666 91.6957 455.166 92.3243 454.666 92.3243C454.165 92.3243 453.781 91.6957 453.819 90.9131C453.858 90.1306 454.319 89.502 454.833 89.502C455.346 89.502 455.718 90.1434 455.666 90.9131Z" fill="#263238"/>
<path d="M458.437 91.3125C457.366 93.7021 455.986 95.9407 454.332 97.9707C455.615 99.2536 458.014 98.6635 458.014 98.6635L458.437 91.3125Z" fill="#DF5753"/>
<path d="M458.668 101.932C458.638 101.932 458.609 101.926 458.581 101.914C458.554 101.902 458.529 101.885 458.509 101.864C458.488 101.842 458.473 101.816 458.462 101.788C458.452 101.76 458.448 101.731 458.45 101.701C458.453 101.639 458.48 101.58 458.525 101.537C458.571 101.494 458.631 101.47 458.693 101.47C459.675 101.477 460.645 101.264 461.533 100.846C462.421 100.429 463.204 99.818 463.825 99.0582C463.869 99.0194 463.926 98.998 463.985 98.998C464.044 98.998 464.101 99.0194 464.146 99.0582C464.187 99.1013 464.21 99.1588 464.21 99.2186C464.21 99.2784 464.187 99.3359 464.146 99.3789C463.481 100.186 462.644 100.835 461.696 101.277C460.748 101.718 459.713 101.942 458.668 101.932Z" fill="#263238"/>
<path d="M466.032 88.5525C465.971 88.584 465.902 88.6005 465.833 88.6005C465.764 88.6005 465.696 88.584 465.634 88.5525C465.155 88.2422 464.608 88.0492 464.04 87.9891C463.472 87.9289 462.897 88.0032 462.363 88.2061C462.311 88.2322 462.254 88.2475 462.196 88.2513C462.138 88.255 462.08 88.2471 462.025 88.2279C461.97 88.2088 461.919 88.1789 461.876 88.1399C461.833 88.1009 461.798 88.0536 461.773 88.0008C461.725 87.8867 461.724 87.7584 461.77 87.6434C461.815 87.5284 461.904 87.4357 462.017 87.3851C462.687 87.1111 463.414 87.0031 464.136 87.0701C464.857 87.1371 465.552 87.3772 466.16 87.7699C466.21 87.8034 466.252 87.8462 466.284 87.896C466.317 87.9459 466.339 88.0016 466.35 88.0601C466.36 88.1186 466.359 88.1786 466.347 88.2367C466.334 88.2948 466.31 88.3498 466.276 88.3985C466.211 88.4721 466.126 88.5255 466.032 88.5525Z" fill="#263238"/>
<path d="M452.266 85.9859C452.197 85.9693 452.135 85.9337 452.086 85.8832C452.043 85.8414 452.009 85.7915 451.986 85.7365C451.963 85.6814 451.951 85.6223 451.951 85.5625C451.951 85.5028 451.963 85.4436 451.986 85.3886C452.009 85.3335 452.043 85.2836 452.086 85.2418C452.578 84.6903 453.19 84.2598 453.875 83.9839C454.561 83.708 455.301 83.594 456.037 83.651C456.096 83.6601 456.153 83.6812 456.203 83.7131C456.254 83.7449 456.297 83.7868 456.331 83.8361C456.365 83.8854 456.388 83.9411 456.399 83.9997C456.41 84.0584 456.409 84.1187 456.396 84.177C456.369 84.2958 456.299 84.4004 456.2 84.4713C456.101 84.5422 455.979 84.5744 455.858 84.5619C455.275 84.5251 454.691 84.6216 454.151 84.8438C453.611 85.0661 453.128 85.4084 452.74 85.8448C452.682 85.9097 452.606 85.9572 452.523 85.9821C452.439 86.007 452.35 86.0083 452.266 85.9859Z" fill="#263238"/>
<path d="M500.53 138.417L487.188 134.863C487.188 134.863 474.102 167.077 469.471 169.168C463.185 172.042 447.264 181.997 440.49 186.705C440.118 188.309 440.413 192.555 441.26 193.722C452.806 191.618 474.91 183.113 479.529 178.79C490.061 168.924 500.53 138.417 500.53 138.417Z" fill="#E58A7B"/>
<path d="M491.215 456.039C490.564 456.091 489.915 455.914 489.38 455.539C489.215 455.389 489.091 455.2 489.022 454.988C488.952 454.777 488.938 454.551 488.982 454.333C488.99 454.196 489.035 454.065 489.112 453.952C489.189 453.839 489.295 453.749 489.419 453.691C490.496 453.14 493.511 455.051 493.857 455.269C493.895 455.293 493.925 455.328 493.941 455.37C493.957 455.411 493.959 455.457 493.947 455.5C493.936 455.545 493.914 455.586 493.882 455.62C493.851 455.654 493.811 455.679 493.768 455.693C492.931 455.898 492.075 456.014 491.215 456.039ZM489.932 454.038C489.835 454.016 489.734 454.016 489.637 454.038C489.587 454.063 489.547 454.101 489.519 454.149C489.492 454.197 489.479 454.252 489.483 454.307C489.449 454.456 489.454 454.612 489.499 454.758C489.544 454.905 489.627 455.037 489.739 455.141C490.24 455.59 491.497 455.641 493.152 455.321C492.166 454.672 491.057 454.235 489.893 454.038H489.932Z" fill="#4CAF4F"/>
<path d="M493.704 455.691C493.67 455.701 493.634 455.701 493.601 455.691C492.639 455.152 490.83 453.035 491.099 451.957C491.14 451.787 491.236 451.634 491.373 451.525C491.511 451.415 491.681 451.355 491.856 451.354C492.028 451.331 492.203 451.346 492.37 451.397C492.536 451.448 492.689 451.534 492.818 451.649C493.883 452.56 493.947 455.357 493.947 455.498C493.954 455.54 493.946 455.583 493.925 455.62C493.904 455.658 493.871 455.687 493.832 455.703C493.789 455.712 493.744 455.708 493.704 455.691ZM491.985 451.778H491.895C491.6 451.778 491.561 451.945 491.548 452.009C491.394 452.637 492.536 454.241 493.485 454.998C493.481 453.914 493.145 452.858 492.523 451.97C492.374 451.84 492.182 451.772 491.985 451.778Z" fill="#4CAF4F"/>
<path d="M457.153 454.434C456.368 454.708 455.513 454.708 454.728 454.434C454.55 454.338 454.399 454.198 454.289 454.027C454.179 453.857 454.114 453.661 454.1 453.459C454.084 453.332 454.1 453.203 454.147 453.084C454.194 452.966 454.271 452.861 454.369 452.779C455.396 451.855 459.591 452.779 460.065 452.959C460.11 452.97 460.15 452.997 460.178 453.034C460.206 453.072 460.221 453.117 460.219 453.164C460.221 453.212 460.209 453.26 460.184 453.301C460.159 453.342 460.122 453.375 460.078 453.395C459.133 453.821 458.155 454.169 457.153 454.434ZM455.062 452.907C454.915 452.937 454.778 453.003 454.664 453.1C454.623 453.13 454.592 453.172 454.574 453.22C454.556 453.267 454.551 453.319 454.562 453.369C454.57 453.504 454.612 453.634 454.684 453.749C454.755 453.863 454.855 453.957 454.972 454.024C455.652 454.383 457.23 454.101 459.27 453.241C457.896 452.894 456.473 452.782 455.062 452.907Z" fill="#4CAF4F"/>
<path d="M460.04 453.396H459.937C458.654 453.165 456.089 451.689 456.012 450.586C456.012 450.33 456.127 449.97 456.743 449.765C456.951 449.691 457.172 449.66 457.392 449.673C457.613 449.686 457.828 449.744 458.026 449.842C459.411 450.522 460.143 452.985 460.181 453.101C460.19 453.139 460.189 453.18 460.178 453.218C460.167 453.256 460.146 453.291 460.117 453.319C460.098 453.35 460.071 453.377 460.04 453.396ZM457 450.15H456.871C456.474 450.291 456.474 450.458 456.474 450.509C456.474 451.176 458.334 452.395 459.629 452.806C459.331 451.775 458.699 450.873 457.833 450.24C457.576 450.109 457.279 450.077 457 450.15Z" fill="#4CAF4F"/>
<path d="M441.579 185.949L428.199 192.107L426.646 195.956L431.586 199.278C431.586 199.278 440.822 198.278 443.452 192.338L441.579 185.949Z" fill="#E58A7B"/>
<path d="M442.145 193.942C441.846 191.371 440.997 188.894 439.656 186.681L441.773 185.09C443.365 187.641 444.381 190.508 444.749 193.493L442.145 193.942Z" fill="#263238"/>
<path d="M444.428 187.773C444.711 188.218 444.85 188.739 444.826 189.266C444.802 189.792 444.617 190.299 444.295 190.716C443.973 191.134 443.53 191.442 443.027 191.599C442.523 191.756 441.984 191.754 441.482 191.593C440.98 191.433 440.539 191.122 440.22 190.702C439.901 190.282 439.719 189.774 439.699 189.247C439.679 188.72 439.822 188.2 440.108 187.757C440.394 187.314 440.809 186.97 441.298 186.772C441.846 186.493 442.483 186.441 443.069 186.628C443.655 186.816 444.144 187.227 444.428 187.773Z" fill="#263238"/>
<path d="M419.154 197.085L420.938 198.881L432.945 193.75L428.199 192.107L419.154 197.085Z" fill="#E58A7B"/>
<path opacity="0.2" d="M470.715 431.572C470.792 431.572 472.536 436.473 472.536 436.473L454.781 443.939L451.984 438.731L470.715 431.572Z" fill="black"/>
<path opacity="0.2" d="M507.008 437.794C507.085 437.794 507.598 442.733 507.598 442.733H488.149L486.764 437.062L507.008 437.794Z" fill="black"/>
<path d="M504.006 134.724C507.533 146.103 493.742 161.665 493.742 161.665L474.691 153.891C476.95 147.313 479.553 140.86 482.491 134.557C488.341 121.947 500.439 123.242 504.006 134.724Z" fill="#3B61F4"/>
<path opacity="0.2" d="M504.006 134.724C507.533 146.103 493.742 161.665 493.742 161.665L474.691 153.891C476.95 147.313 479.553 140.86 482.491 134.557C488.341 121.947 500.439 123.242 504.006 134.724Z" fill="#3B61F4"/>
<path d="M314.702 20.7148H306.504V22.0362H314.702V20.7148Z" fill="#06193D"/>
<path d="M420.82 73.0135L419.828 95.0312L421.148 95.0907L422.14 73.073L420.82 73.0135Z" fill="#06193D"/>
<path d="M418.27 26.6426H266.889L252.803 341.875H404.184L418.27 26.6426Z" fill="#06193D"/>
<path opacity="0.56" d="M413.755 30.9785H262.373L248.287 346.211H399.669L413.755 30.9785Z" fill="#06193D"/>
<path opacity="0.07" d="M409.238 35.3027H257.857L243.758 350.535H395.139L409.238 35.3027Z" fill="#06193D"/>
<path d="M392.009 172.787H262.796L261.719 196.906H390.932L392.009 172.787Z" fill="white"/>
<path d="M333.855 155.188H263.578L263.104 165.977H333.38L333.855 155.188Z" fill="#3B61F4"/>
<path d="M389.097 237.885H259.884L258.807 262.003H388.02L389.097 237.885Z" fill="white"/>
<path d="M365.401 294.574H278.511L277.215 323.478H364.105L365.401 294.574Z" fill="#3B61F4"/>
<path d="M359.59 327.966H272.699C272.661 327.976 272.622 327.976 272.584 327.966C272.571 327.929 272.571 327.888 272.584 327.851L273.867 298.934C273.867 298.915 273.871 298.895 273.878 298.877C273.886 298.859 273.898 298.843 273.912 298.83C273.927 298.817 273.944 298.806 273.963 298.8C273.981 298.794 274.001 298.791 274.021 298.793H360.911C360.927 298.785 360.945 298.781 360.962 298.781C360.98 298.781 360.998 298.785 361.014 298.793C361.023 298.809 361.027 298.827 361.027 298.845C361.027 298.863 361.023 298.88 361.014 298.896L359.756 327.876C359.741 327.907 359.717 327.931 359.687 327.947C359.657 327.963 359.623 327.97 359.59 327.966ZM272.853 327.658H359.436L360.719 299.05H274.136L272.853 327.658Z" fill="white"/>
<path d="M318.679 220.281H260.666L260.191 231.083H318.191L318.679 220.281Z" fill="#3B61F4"/>
<path d="M363.747 94.8808C363.415 101.9 360.919 108.644 356.601 114.188C353.404 118.376 349.291 121.775 344.576 124.126C339.862 126.477 334.671 127.716 329.403 127.749C325.146 127.781 320.928 126.942 317.007 125.282C313.087 123.622 309.548 121.178 306.608 118.098C303.669 115.019 301.39 111.371 299.914 107.378C298.438 103.385 297.794 99.1318 298.024 94.8808C298.475 86.0597 302.279 77.7441 308.658 71.6346C315.037 65.5251 323.509 62.0833 332.341 62.0131C336.602 61.9733 340.825 62.8077 344.75 64.4644C348.675 66.1212 352.219 68.5653 355.162 71.6457C358.105 74.726 360.386 78.3772 361.862 82.3736C363.339 86.37 363.98 90.6268 363.747 94.8808Z" fill="white"/>
<path d="M366.838 68.8881C366.754 70.7545 366.09 72.5483 364.939 74.0197C364.087 75.1319 362.992 76.0348 361.738 76.6596C360.485 77.2843 359.104 77.6144 357.703 77.6246C356.346 77.6328 355.007 77.3086 353.804 76.6802C352.601 76.0518 351.57 75.1384 350.802 74.0197C349.784 72.508 349.28 70.7086 349.365 68.8881C349.489 66.546 350.501 64.3395 352.196 62.7185C353.891 61.0974 356.141 60.184 358.486 60.1644C359.617 60.1541 360.739 60.3755 361.782 60.8151C362.824 61.2547 363.766 61.9032 364.548 62.7205C365.331 63.5378 365.937 64.5066 366.331 65.5673C366.725 66.6281 366.897 67.7582 366.838 68.8881Z" fill="#3B61F4"/>
<path d="M276.716 184.849C276.654 185.883 276.203 186.855 275.453 187.569C274.703 188.283 273.71 188.686 272.674 188.697C272.174 188.703 271.678 188.607 271.217 188.413C270.756 188.22 270.34 187.934 269.993 187.574C269.647 187.213 269.378 186.785 269.204 186.316C269.03 185.848 268.953 185.348 268.98 184.849C269.035 183.813 269.485 182.837 270.236 182.122C270.987 181.406 271.983 181.005 273.021 181C273.52 180.996 274.015 181.094 274.476 181.288C274.936 181.482 275.352 181.768 275.698 182.128C276.044 182.488 276.312 182.916 276.487 183.383C276.662 183.851 276.74 184.35 276.716 184.849Z" fill="#263238"/>
<path d="M294.009 184.849C293.951 185.884 293.5 186.858 292.75 187.572C291.999 188.287 291.005 188.69 289.968 188.698C289.469 188.702 288.975 188.604 288.515 188.41C288.055 188.216 287.64 187.93 287.296 187.569C286.951 187.208 286.683 186.781 286.51 186.313C286.336 185.846 286.26 185.347 286.286 184.849C286.342 183.815 286.789 182.842 287.538 182.126C288.286 181.411 289.279 181.009 290.315 181C290.815 180.994 291.311 181.091 291.772 181.284C292.233 181.478 292.649 181.763 292.996 182.124C293.342 182.485 293.611 182.913 293.785 183.381C293.959 183.85 294.036 184.35 294.009 184.849Z" fill="#263238"/>
<path d="M311.314 184.849C311.256 185.884 310.805 186.858 310.055 187.572C309.304 188.287 308.31 188.69 307.273 188.698C306.774 188.702 306.279 188.604 305.819 188.41C305.358 188.216 304.942 187.93 304.596 187.57C304.251 187.209 303.982 186.782 303.807 186.314C303.632 185.846 303.554 185.348 303.579 184.849C303.637 183.814 304.088 182.84 304.838 182.126C305.589 181.411 306.583 181.008 307.62 181C308.12 180.994 308.616 181.091 309.077 181.284C309.538 181.478 309.955 181.763 310.301 182.124C310.647 182.485 310.916 182.913 311.09 183.381C311.264 183.85 311.341 184.35 311.314 184.849Z" fill="#263238"/>
<path d="M273.803 249.943C273.741 250.976 273.29 251.948 272.54 252.663C271.79 253.377 270.797 253.78 269.762 253.791C269.262 253.795 268.767 253.697 268.307 253.503C267.847 253.309 267.431 253.024 267.085 252.663C266.739 252.303 266.47 251.876 266.295 251.408C266.12 250.94 266.042 250.441 266.067 249.943C266.126 248.908 266.576 247.934 267.326 247.219C268.077 246.504 269.072 246.102 270.108 246.094C270.607 246.09 271.103 246.188 271.563 246.382C272.023 246.576 272.439 246.862 272.785 247.222C273.131 247.582 273.4 248.009 273.575 248.477C273.75 248.945 273.827 249.444 273.803 249.943Z" fill="#263238"/>
<path d="M291.097 249.943C291.039 250.975 290.59 251.947 289.842 252.662C289.095 253.376 288.103 253.78 287.069 253.791C286.569 253.797 286.073 253.701 285.612 253.507C285.151 253.314 284.734 253.028 284.388 252.667C284.042 252.307 283.773 251.879 283.599 251.41C283.424 250.941 283.348 250.442 283.374 249.943C283.433 248.908 283.883 247.934 284.634 247.219C285.384 246.504 286.379 246.102 287.415 246.094C287.914 246.09 288.409 246.188 288.868 246.382C289.328 246.576 289.743 246.862 290.088 247.223C290.433 247.583 290.7 248.01 290.874 248.478C291.048 248.946 291.124 249.444 291.097 249.943Z" fill="#263238"/>
<path d="M308.443 249.943C308.384 250.978 307.934 251.951 307.183 252.666C306.433 253.381 305.438 253.783 304.402 253.791C303.903 253.794 303.408 253.694 302.949 253.5C302.49 253.305 302.075 253.019 301.729 252.659C301.383 252.299 301.115 251.873 300.939 251.406C300.763 250.939 300.684 250.441 300.707 249.943C300.769 248.909 301.22 247.937 301.97 247.223C302.72 246.509 303.712 246.105 304.748 246.094C305.248 246.088 305.744 246.185 306.205 246.378C306.666 246.571 307.083 246.857 307.429 247.218C307.775 247.579 308.044 248.007 308.218 248.475C308.393 248.944 308.469 249.443 308.443 249.943Z" fill="#263238"/>
<path d="M325.708 249.943C325.647 250.976 325.195 251.948 324.446 252.663C323.696 253.377 322.703 253.78 321.667 253.791C321.168 253.793 320.674 253.694 320.215 253.5C319.755 253.305 319.34 253.019 318.995 252.659C318.649 252.299 318.38 251.873 318.205 251.406C318.029 250.939 317.95 250.441 317.973 249.943C318.034 248.909 318.485 247.937 319.235 247.223C319.985 246.508 320.978 246.105 322.014 246.094C322.513 246.09 323.008 246.188 323.468 246.382C323.929 246.576 324.345 246.862 324.691 247.222C325.036 247.582 325.305 248.009 325.48 248.477C325.655 248.945 325.733 249.444 325.708 249.943Z" fill="#263238"/>
<path d="M343.081 249.943C343.019 250.976 342.568 251.948 341.818 252.663C341.068 253.377 340.075 253.78 339.04 253.791C338.54 253.797 338.044 253.701 337.583 253.507C337.121 253.314 336.705 253.028 336.359 252.667C336.012 252.307 335.744 251.879 335.569 251.41C335.395 250.941 335.319 250.442 335.345 249.943C335.404 248.908 335.854 247.934 336.604 247.219C337.355 246.504 338.35 246.102 339.386 246.094C339.886 246.09 340.381 246.188 340.841 246.382C341.301 246.576 341.717 246.862 342.063 247.222C342.409 247.582 342.678 248.009 342.853 248.477C343.028 248.945 343.105 249.444 343.081 249.943Z" fill="#263238"/>
<path d="M340.453 93.1669C345.823 87.916 346.108 79.4993 341.09 74.3678C336.072 69.2363 327.651 69.3331 322.281 74.5841C316.912 79.8351 316.627 88.2517 321.645 93.3832C326.663 98.5147 335.084 98.4179 340.453 93.1669Z" fill="#3B61F4"/>
<path d="M356.601 114.187C353.404 118.375 349.291 121.774 344.576 124.125C339.862 126.475 334.671 127.715 329.403 127.747C324.295 127.791 319.254 126.576 314.726 124.211C310.198 121.847 306.321 118.404 303.438 114.187C309.672 107.978 319.538 103.924 330.468 103.924C341.398 103.924 350.917 107.978 356.601 114.187Z" fill="#3B61F4"/>
<path opacity="0.1" d="M340.453 93.1669C345.823 87.916 346.108 79.4993 341.09 74.3678C336.072 69.2363 327.651 69.3331 322.281 74.5841C316.912 79.8351 316.627 88.2517 321.645 93.3832C326.663 98.5147 335.084 98.4179 340.453 93.1669Z" fill="#F3F6FF"/>
<path opacity="0.1" d="M356.601 114.187C353.404 118.375 349.291 121.774 344.576 124.125C339.862 126.475 334.671 127.715 329.403 127.747C324.295 127.791 319.254 126.576 314.726 124.211C310.198 121.847 306.321 118.404 303.438 114.187C309.672 107.978 319.538 103.924 330.468 103.924C341.398 103.924 350.917 107.978 356.601 114.187Z" fill="#F3F6FF"/>
<path d="M167.848 202.717C166.63 205.385 165.347 208.323 164.231 211.171C163.115 214.019 161.973 216.957 160.985 219.882C158.968 225.646 157.432 231.568 156.392 237.586L156.11 239.472C156.083 239.795 156.113 240.121 156.2 240.434C156.502 241.497 156.979 242.503 157.611 243.41C159.258 245.759 161.17 247.911 163.307 249.825C165.56 251.921 167.924 253.895 170.389 255.739C172.852 257.638 175.443 259.485 177.996 261.23L175.597 265.733C169.501 263.077 163.715 259.76 158.342 255.842C155.476 253.751 152.889 251.302 150.645 248.555C149.315 246.919 148.277 245.066 147.579 243.077C147.173 241.834 146.965 240.535 146.963 239.228C146.963 238.92 146.963 238.471 146.963 238.253V237.624L147.091 236.342C147.827 229.658 149.232 223.065 151.286 216.662C152.287 213.506 153.352 210.363 154.57 207.297C155.789 204.231 157.046 201.229 158.599 198.111L167.848 202.717Z" fill="#E58A7B"/>
<path d="M176.187 260.435L185.257 255.842L182.909 265.797C182.909 265.797 176.687 267.542 173.801 264.514L176.187 260.435Z" fill="#E58A7B"/>
<path d="M193.558 257.471L191.146 265.707L182.91 265.797L185.258 255.842L193.558 257.471Z" fill="#E58A7B"/>
<path d="M206.362 154.686C206.847 156.463 207.522 158.184 208.376 159.817C208.126 160.1 207.805 160.31 207.446 160.425C207.087 160.54 206.703 160.556 206.336 160.471L206.362 154.686Z" fill="#DF5753"/>
<path d="M206.091 154.761C206.622 154.761 207.053 154.101 207.053 153.286C207.053 152.471 206.622 151.811 206.091 151.811C205.56 151.811 205.129 152.471 205.129 153.286C205.129 154.101 205.56 154.761 206.091 154.761Z" fill="#263238"/>
<path d="M205.809 151.862L207.759 151.311C207.759 151.311 206.809 152.824 205.809 151.862Z" fill="#263238"/>
<path d="M181.306 164.102C182.474 170.067 183.641 181.01 179.459 185C179.459 185 181.101 191.055 192.198 191.055C204.398 191.055 198.022 185 198.022 185C191.364 183.409 191.531 178.47 192.698 173.826L181.306 164.102Z" fill="#E58A7B"/>
<path d="M178.06 150.503C178.675 160.471 178.727 164.705 183.756 169.823C191.338 177.521 203.448 174.596 205.821 164.692C207.964 155.712 206.604 140.933 196.841 136.968C194.698 136.086 192.365 135.764 190.064 136.034C187.762 136.304 185.567 137.157 183.686 138.512C181.806 139.867 180.302 141.68 179.318 143.778C178.333 145.876 177.9 148.191 178.06 150.503Z" fill="#E58A7B"/>
<path d="M179.049 139.289C174.046 141.111 167.375 139.751 169.992 155.184C172.763 171.528 168.504 176.904 168.504 176.904C168.504 176.904 187.478 180.945 206.85 176.66C206.85 176.66 200.935 166.32 202.59 158.699C204.707 149.078 203.039 145.524 203.039 145.524C203.039 145.524 186.08 136.723 179.049 139.289Z" fill="#263238"/>
<path d="M200.215 155.699C200.22 157.594 200.763 159.449 201.78 161.049C203.14 163.127 204.743 162.331 205.141 160.125C205.5 158.188 205.231 154.762 203.499 153.428C201.767 152.094 200.241 153.402 200.215 155.699Z" fill="#E58A7B"/>
<path d="M174.699 140.971C173.262 136.93 180.113 130.708 194.609 133.274C209.106 135.839 209.735 147.911 209.735 147.911L206.81 144.422L206.938 148.091L192.044 150.952L174.699 140.971Z" fill="#263238"/>
<path d="M175.93 185.679C175.845 185.093 175.991 184.497 176.339 184.017C176.686 183.538 177.207 183.214 177.79 183.113C182.306 182.369 192.569 180.855 197.726 181.573C201.575 182.112 202.576 184.344 202.743 186.179C202.769 186.5 202.726 186.823 202.617 187.126C202.507 187.43 202.335 187.706 202.11 187.937C201.885 188.168 201.613 188.348 201.313 188.465C201.013 188.582 200.691 188.634 200.369 188.616L178.073 187.616C177.547 187.589 177.047 187.382 176.656 187.029C176.266 186.676 176.009 186.199 175.93 185.679Z" fill="#4CAF4F"/>
<path opacity="0.6" d="M175.93 185.679C175.845 185.093 175.991 184.497 176.339 184.017C176.686 183.538 177.207 183.214 177.79 183.113C182.306 182.369 192.569 180.855 197.726 181.573C201.575 182.112 202.576 184.344 202.743 186.179C202.769 186.5 202.726 186.823 202.617 187.126C202.507 187.43 202.335 187.706 202.11 187.937C201.885 188.168 201.613 188.348 201.313 188.465C201.013 188.582 200.691 188.634 200.369 188.616L178.073 187.616C177.547 187.589 177.047 187.382 176.656 187.029C176.266 186.676 176.009 186.199 175.93 185.679Z" fill="black"/>
<path d="M188.824 409.801L197.099 415.548L210.941 396.779L202.667 391.045L188.824 409.801Z" fill="#E58A7B"/>
<path d="M169.529 409.428L178.266 414.406L190.517 394.56L181.781 389.582L169.529 409.428Z" fill="#E58A7B"/>
<path d="M210.927 396.779L203.794 406.452L195.52 400.718L202.652 391.045L210.927 396.779Z" fill="#CF6F64"/>
<path d="M181.769 389.582L190.518 394.572L184.206 404.797L175.457 399.807L181.769 389.582Z" fill="#CF6F64"/>
<path d="M195.804 248.338C195.804 248.338 228.107 289.044 222.039 327.98C217.151 359.424 188.799 402.003 188.799 402.003L175.47 395.383C184.865 376.557 192.883 357.074 199.46 337.088C201.488 330.884 202.08 324.299 201.191 317.832C200.302 311.365 197.956 305.184 194.328 299.756C177.959 275.856 151.736 290.083 169.376 248.338H195.804Z" fill="#2F4EC3"/>
<path opacity="0.6" d="M195.804 248.338C195.804 248.338 228.107 289.044 222.039 327.98C217.151 359.424 188.799 402.003 188.799 402.003L175.47 395.383C184.865 376.557 192.883 357.074 199.46 337.088C201.488 330.884 202.08 324.299 201.191 317.832C200.302 311.365 197.956 305.184 194.328 299.756C177.959 275.856 151.736 290.083 169.376 248.338H195.804Z" fill="black"/>
<path opacity="0.4" d="M211.647 274.48L206.951 269.811C206.951 270.183 216.047 326.335 218.6 342.114C220.106 337.505 221.26 332.787 222.051 328.003C225.053 308.9 218.779 289.388 211.647 274.48Z" fill="black"/>
<path d="M210.223 248.338C210.223 248.338 249.121 299.5 250.224 330.174C251.135 355.832 207.889 405.544 207.889 405.544L195.316 397.41C195.316 397.41 220.628 362.105 227.004 333.265C224.541 304.683 172.455 248.338 172.455 248.338H210.223Z" fill="#2F4EC3"/>
<path opacity="0.6" d="M210.223 248.338C210.223 248.338 249.121 299.5 250.224 330.174C251.135 355.832 207.889 405.544 207.889 405.544L195.316 397.41C195.316 397.41 220.628 362.105 227.004 333.265C224.541 304.683 172.455 248.338 172.455 248.338H210.223Z" fill="black"/>
<path d="M162.101 187.286C157.945 188.274 153.955 203.386 153.955 203.386L170.209 214.239C170.209 214.239 175.623 202.283 173.724 197.049C171.762 191.596 167.323 186.041 162.101 187.286Z" fill="#D7E1FF"/>
<path opacity="0.2" d="M165.283 197.02L164.154 210.195L170.197 214.249C171.865 210.493 173.1 206.559 173.879 202.523L165.283 197.02Z" fill="black"/>
<path d="M215.034 187.579C215.034 187.579 219.832 189.26 210.223 248.324H169.35C170.043 231.646 170.056 221.383 162.102 187.284C167.825 186.104 173.626 185.341 179.459 185C185.639 184.557 191.843 184.557 198.023 185C206.002 185.732 215.034 187.579 215.034 187.579Z" fill="#D7E1FF"/>
<path d="M219.191 197.021C220.115 199.586 221.09 202.345 222.116 205C223.142 207.656 224.117 210.388 225.157 213.083L228.3 221.139L229.095 223.153L229.506 224.154L229.698 224.654C229.698 224.744 229.698 224.744 229.698 224.731C229.464 224.401 229.156 224.129 228.8 223.936C228.292 223.637 227.72 223.466 227.132 223.435C226.644 223.42 226.158 223.512 225.708 223.705C225.118 223.974 225.118 224.09 225.131 224.077C225.238 223.991 225.332 223.892 225.413 223.782C226.123 222.849 226.738 221.848 227.248 220.793C227.851 219.612 228.428 218.355 229.005 217.085C230.134 214.519 231.173 211.864 232.212 209.183C233.252 206.501 234.239 203.794 235.202 201.062L238.127 192.877L243.066 194.16C242.091 200.01 240.834 205.706 239.32 211.505C238.588 214.391 237.729 217.252 236.754 220.138C236.266 221.588 235.728 223.025 235.112 224.5C234.47 226.101 233.68 227.639 232.751 229.093C232.41 229.582 232.033 230.046 231.622 230.479C230.967 231.186 230.172 231.75 229.288 232.133C228.503 232.47 227.652 232.628 226.799 232.595C225.842 232.56 224.911 232.282 224.092 231.787C223.125 231.184 222.323 230.351 221.757 229.362C221.564 229.029 221.398 228.695 221.282 228.452L221.038 227.964L220.551 226.963L219.576 224.975C218.293 222.307 217.01 219.612 215.894 216.906C214.778 214.199 213.598 211.453 212.494 208.695C211.391 205.937 210.403 203.179 209.467 200.202L219.191 197.021Z" fill="#E58A7B"/>
<path d="M215.032 187.578C219.946 188.745 225.475 203.268 225.475 203.268L210.863 215.699C210.863 215.699 201.408 199.868 203.32 194.646C205.308 189.207 208.618 186.051 215.032 187.578Z" fill="#D7E1FF"/>
<path d="M240.448 188.283L245.58 183.998L249.146 189.553L246.516 194.184C246.516 194.184 242.334 198.033 238.639 196.07C238.053 194.752 237.912 193.279 238.238 191.873C238.565 190.468 239.341 189.208 240.448 188.283Z" fill="#E58A7B"/>
<path d="M254.842 184.011L254.457 185.409L246.336 186.769L245.541 183.998L254.842 184.011Z" fill="#E58A7B"/>
<path d="M208.889 406.197L194.238 396.729L196.868 392.162L213.328 402.284L208.889 406.197Z" fill="#4CAF4F"/>
<path d="M183.999 413.739C182.714 413.582 181.479 413.144 180.382 412.456C180.336 412.441 180.297 412.411 180.269 412.372C180.241 412.333 180.227 412.286 180.227 412.238C180.227 412.19 180.241 412.143 180.269 412.104C180.297 412.065 180.336 412.036 180.382 412.02C180.779 411.892 184.23 410.827 185.231 411.648C185.343 411.742 185.429 411.863 185.478 412.001C185.528 412.139 185.54 412.287 185.513 412.431C185.495 412.662 185.419 412.884 185.291 413.077C185.163 413.27 184.988 413.428 184.782 413.534C184.542 413.665 184.273 413.736 183.999 413.739ZM181.113 412.328C182.716 413.149 183.999 413.444 184.615 413.136C184.749 413.062 184.862 412.955 184.943 412.824C185.024 412.694 185.07 412.545 185.077 412.392C185.077 412.187 185.077 412.097 184.962 412.046C184.423 411.61 182.498 411.943 181.087 412.328H181.113Z" fill="#263238"/>
<path d="M180.472 412.549C180.405 412.548 180.34 412.521 180.293 412.472C180.274 412.437 180.264 412.397 180.264 412.357C180.264 412.316 180.274 412.277 180.293 412.241C180.293 412.126 181.127 409.342 182.435 408.713C182.602 408.637 182.784 408.598 182.968 408.598C183.151 408.598 183.333 408.637 183.5 408.713C183.68 408.77 183.836 408.886 183.943 409.042C184.05 409.197 184.102 409.384 184.09 409.573C184 410.727 181.653 412.318 180.575 412.588L180.472 412.549ZM182.961 409.047C182.836 409.051 182.714 409.081 182.602 409.137C181.807 409.522 181.152 411.023 180.832 411.933C181.961 411.459 183.513 410.201 183.564 409.496C183.564 409.38 183.564 409.239 183.269 409.111C183.173 409.059 183.069 409.025 182.961 409.008V409.047Z" fill="#263238"/>
<path d="M202.308 419.283C200.858 419.283 198.844 417.423 197.741 416.281C197.712 416.242 197.697 416.194 197.697 416.146C197.697 416.098 197.712 416.051 197.741 416.011C197.766 415.97 197.802 415.936 197.845 415.914C197.888 415.891 197.936 415.881 197.984 415.883C198.498 415.883 202.949 416.55 203.578 417.808C203.644 417.92 203.679 418.049 203.679 418.18C203.679 418.31 203.644 418.439 203.578 418.552C203.484 418.747 203.341 418.916 203.164 419.042C202.987 419.167 202.78 419.246 202.564 419.27L202.308 419.283ZM198.587 416.46C200.204 418.026 201.628 418.898 202.436 418.795C202.578 418.777 202.712 418.724 202.829 418.641C202.945 418.558 203.039 418.448 203.103 418.321C203.132 418.277 203.147 418.226 203.147 418.173C203.147 418.121 203.132 418.069 203.103 418.026C202.77 417.333 200.396 416.743 198.587 416.46Z" fill="#263238"/>
<path d="M198.728 416.396C198.44 416.404 198.152 416.382 197.869 416.331C197.829 416.326 197.792 416.309 197.76 416.285C197.729 416.26 197.704 416.227 197.689 416.19C197.67 416.153 197.66 416.111 197.66 416.068C197.66 416.026 197.67 415.984 197.689 415.947C197.766 415.857 199.498 413.766 201.14 413.625C201.605 413.588 202.066 413.736 202.423 414.035C202.924 414.471 202.898 414.856 202.77 415.1C202.449 415.972 200.229 416.396 198.728 416.396ZM198.395 415.921C199.832 415.998 202.128 415.523 202.423 414.895C202.423 414.895 202.526 414.689 202.192 414.407C202.06 414.292 201.904 414.205 201.737 414.152C201.569 414.099 201.392 414.081 201.217 414.099C200.111 414.408 199.126 415.048 198.395 415.934V415.921Z" fill="#263238"/>
<path d="M180.819 411.162L169.94 408.083C169.753 408.026 169.551 408.041 169.373 408.123C169.196 408.206 169.055 408.352 168.978 408.532L165.309 416.781C165.223 416.992 165.183 417.219 165.19 417.447C165.198 417.675 165.254 417.899 165.355 418.104C165.456 418.309 165.598 418.49 165.774 418.636C165.95 418.781 166.154 418.888 166.374 418.949C170.223 419.95 172.07 420.232 176.855 421.605C179.806 422.426 184.014 423.952 188.08 425.107C192.147 426.262 193.507 422.297 191.929 421.451C184.796 417.679 184.232 415.036 182.282 412.214C181.933 411.703 181.415 411.331 180.819 411.162Z" fill="#263238"/>
<path d="M198.035 414.778L188.747 408.363C188.589 408.249 188.395 408.196 188.201 408.215C188.007 408.234 187.827 408.323 187.695 408.466L181.537 415.086C181.387 415.257 181.275 415.458 181.208 415.676C181.142 415.893 181.123 416.123 181.152 416.348C181.181 416.574 181.258 416.791 181.377 416.985C181.497 417.178 181.656 417.345 181.845 417.472C185.116 419.666 186.809 420.551 190.902 423.386C193.468 425.131 198.432 429.005 201.896 431.417C205.36 433.829 207.939 430.519 206.707 429.21C201.191 423.322 199.985 419.627 199.074 416.279C198.916 415.671 198.548 415.14 198.035 414.778Z" fill="#263238"/>
<path d="M190.505 402.848L173.764 394.522L175.496 389.98L193.379 398.755L190.505 402.848Z" fill="#4CAF4F"/>
<path d="M168.733 245.923L167.322 249.618C167.181 249.9 167.514 250.195 167.989 250.195H210.427C210.799 250.195 211.107 250.016 211.133 249.785L211.492 246.116C211.492 245.872 211.197 245.654 210.799 245.654H169.4C169.275 245.642 169.15 245.66 169.034 245.707C168.918 245.754 168.814 245.828 168.733 245.923Z" fill="#4CAF4F"/>
<path opacity="0.4" d="M168.733 245.923L167.322 249.618C167.181 249.9 167.514 250.195 167.989 250.195H210.427C210.799 250.195 211.107 250.016 211.133 249.785L211.492 246.116C211.492 245.872 211.197 245.654 210.799 245.654H169.4C169.275 245.642 169.15 245.66 169.034 245.707C168.918 245.754 168.814 245.828 168.733 245.923Z" fill="white"/>
<path d="M175.419 250.557H174.302C174.084 250.557 173.918 250.441 173.93 250.3L174.456 245.541C174.456 245.412 174.662 245.297 174.88 245.297H175.996C176.214 245.297 176.381 245.412 176.368 245.541L175.842 250.3C175.829 250.441 175.637 250.557 175.419 250.557Z" fill="#4CAF4F"/>
<path d="M201.589 250.557H200.486C200.268 250.557 200.101 250.441 200.114 250.3L200.627 245.541C200.627 245.412 200.845 245.297 201.063 245.297H202.167C202.385 245.297 202.564 245.412 202.539 245.541L202.025 250.3C201.961 250.441 201.82 250.557 201.589 250.557Z" fill="#4CAF4F"/>
<g style="mix-blend-mode:multiply">
<path d="M174.443 467.815C193.424 467.815 208.812 466.701 208.812 465.327C208.812 463.952 193.424 462.838 174.443 462.838C155.462 462.838 140.074 463.952 140.074 465.327C140.074 466.701 155.462 467.815 174.443 467.815Z" fill="#F5F5F5"/>
</g>
<path d="M195.379 461.808C189.298 460.038 182.55 457.767 178.471 455.394C178.355 455.317 178.227 455.278 178.112 455.214V427.683H190.414C191.348 427.628 192.226 427.218 192.868 426.537C193.509 425.856 193.867 424.956 193.867 424.021C193.867 423.085 193.509 422.185 192.868 421.504C192.226 420.823 191.348 420.413 190.414 420.358H178.176V294.865H170.786V420.358H158.56C158.061 420.328 157.561 420.401 157.091 420.572C156.621 420.743 156.191 421.008 155.827 421.351C155.463 421.694 155.173 422.107 154.975 422.567C154.776 423.026 154.674 423.521 154.674 424.021C154.674 424.521 154.776 425.016 154.975 425.475C155.173 425.934 155.463 426.348 155.827 426.691C156.191 427.034 156.621 427.299 157.091 427.469C157.561 427.64 158.061 427.713 158.56 427.683H170.786V455.176C170.671 455.176 170.555 455.278 170.44 455.355C166.296 457.767 159.599 460.038 153.518 461.77C153.108 461.894 152.755 462.161 152.524 462.523C152.293 462.885 152.2 463.317 152.26 463.742C152.321 464.167 152.531 464.556 152.854 464.839C153.176 465.122 153.59 465.28 154.019 465.285H194.879C195.289 465.257 195.677 465.089 195.978 464.81C196.28 464.53 196.476 464.156 196.535 463.749C196.593 463.342 196.51 462.927 196.3 462.574C196.09 462.221 195.765 461.951 195.379 461.808Z" fill="#E0E0E0"/>
<path d="M197.265 282.09H151.645C147.975 282.09 145 285.065 145 288.735V302.295C145 305.966 147.975 308.941 151.645 308.941H197.265C200.935 308.941 203.91 305.966 203.91 302.295V288.735C203.91 285.065 200.935 282.09 197.265 282.09Z" fill="#4CAF4F"/>
<path d="M151.223 308.953V311.288C151.223 313.212 153.314 314.777 155.88 314.777H193.083C195.649 314.777 197.74 313.212 197.74 311.288V308.953H151.223Z" fill="#4CAF4F"/>
<path opacity="0.3" d="M151.223 308.953V311.288C151.223 313.212 153.314 314.777 155.88 314.777H193.083C195.649 314.777 197.74 313.212 197.74 311.288V308.953H151.223Z" fill="white"/>
</svg>
